<?xml version="1.0" encoding="utf-8"?>
<!-- Generator: Adobe Illustrator 15.0.2, SVG Export Plug-In  -->
<!DOCTYPE svg PUBLIC "-//W3C//DTD SVG 1.1//EN" "http://www.w3.org/Graphics/SVG/1.1/DTD/svg11.dtd" [
	<!ENTITY ns_flows "http://ns.adobe.com/Flows/1.0/">
]>
<svg version="1.1"
	 xmlns="http://www.w3.org/2000/svg" xmlns:xlink="http://www.w3.org/1999/xlink" xmlns:a="http://ns.adobe.com/AdobeSVGViewerExtensions/3.0/"
	 x="0px" y="0px" width="624px" height="719px" viewBox="-2.649 -1.562 624 719"
	 overflow="visible" enable-background="new -2.649 -1.562 624 719" xml:space="preserve">
<defs>
</defs>
<g id="XMLID_1_">
	<g>
		<path fill="#652D90" d="M409.64,513.144l29.454,9.552l16.748-18.024l-20.924-4.667L409.64,513.144z M484.586,521.105
			l-20.125-5.002l-20.613,18.638l20.613,9.362L484.586,521.105z M327.852,501.652l25.101,8.21l19.813-23.712l-20.88-4.987
			L327.852,501.652z M151.348,538.839l26.211-10.938l-31.586-14.758l-18.481,6.358L151.348,538.839z M265.522,485.421l23.724,16.231
			l22.035-12.075l-25.812-10.631L265.522,485.421z M242.332,534.741l-20.347-13.636v23.013c-0.844-0.015-1.688-0.015-2.532-0.015
			c-15.815,0-28.566,1.429-28.566,3.164l0.133,0.321l7.597,20.999c0,1.079,9.285,1.954,20.835,1.954
			c3.288,0,6.397-0.073,9.152-0.204c8.441,16.479,27.722,35.087,71.836,35.087c0,0,54.289-1.779,72.502-35.437l1.2,3.208
			c0,1.094,9.773,1.969,21.812,1.969c12.129,0,21.902-0.875,21.902-1.969l8.13-21.32c0-1.735-13.461-3.165-30.032-3.165
			c-6.441,0-12.395,0.219-17.281,0.599c0.089-1.24,0.133-2.509,0.133-3.807l-9.151-24.397l-3.198,6.796h-0.045l-10.085-6.796
			l-18.392,8.998l-24.479-19.002l-13.017,11.55v0.044l-18.126,2.202h-0.089l2.133-8.794L242.332,534.741z M388.848,480.77
			l1.511,14.787c0,2.464,5.953,4.447,13.328,4.447c7.285,0,13.238-1.983,13.238-4.447l1.022-9.814l34.119,5.848l10.351,1.765
			l22.835,3.908l4.932,39.534c0,2.261,6.752,4.098,15.016,4.098c5.73,0,10.707-0.875,13.283-2.144l11.551,2.158l-220.663,127.47
			L40.55,513.144l19.103-3.82l9.773-1.94l1.866,15.006c0,2.261,6.664,4.099,15.016,4.099c8.308,0,15.016-1.838,15.016-4.099
			l2.754-21.918l46.025-9.188l5.598-1.122l7.686,8.574c5.598,5.658,23.057,12.366,23.057,12.366
			c23.945,3.005,21.946-11.083,21.946-11.083c-3.021-9.07-9.418-6.168-17.548-9.857c-2.221-1.021-4.442-2.64-6.664-4.754
			l14.438-2.101l24.612-3.587l3.687,36.078c0,2.449,5.909,4.433,13.284,4.433c7.375,0,13.328-1.983,13.328-4.433l4.131-41.095
			l51.712-7.525l21.546,3.689L388.848,480.77z"/>
		<path fill="#FFFFFF" d="M229.937,218.524c0,1.692-1.333,3.077-3.021,3.077c-1.732,0-3.065-1.385-3.065-3.077
			c0-1.706,1.333-3.077,3.065-3.077C228.604,215.447,229.937,216.818,229.937,218.524z"/>
		<path fill="#F6D39E" d="M330.917,564.067c-7.73,0.846-16.082,1.385-24.878,1.531v-0.015l7.463-15.443l9.685-20.037l5.198,4.638
			l14.705,13.081h0.089l-12.262,16.23V564.067z"/>
		<polygon fill="#FFF100" points="188.132,253.728 159.434,221.397 198.573,212.385 		"/>
		<path fill="#00ADEE" d="M73.159,379.039c-3.243-7.044-5.109-16.144-4.087-27.868c3.643-21.379,22.213-37.653,44.648-37.653
			c25.012,0,45.359,20.299,45.359,45.338c0,14.685-7.02,27.751-17.859,36.035c-7.641,5.833-17.192,9.289-27.5,9.289
			c-5.509,0-10.751-0.977-15.638-2.771c-0.044-0.015-0.089-0.044-0.178-0.059C87.108,397.326,78.223,389.276,73.159,379.039z"/>
		<path fill="#5E55A3" d="M335.493,130.093c-31.854-21-20.036-78.588-20.036-78.588l0.622-0.117l89.917,51.945l-0.622,0.117
			c2,21.349-31.187,12.643-31.187,12.643C374.41,146.863,335.493,130.093,335.493,130.093z"/>
		<path fill="#00ADEE" d="M219.364,184.911c-5.42,0-9.818-4.419-9.818-9.844c0-5.439,4.398-9.843,9.818-9.843
			c5.464,0,9.863,4.404,9.863,9.843C229.227,180.492,224.828,184.911,219.364,184.911z"/>
		<path fill="#FFFFFF" d="M377.298,549.411c1.021-1.269,1.51-2.566,1.51-3.908c0,1.298-0.044,2.566-0.133,3.807
			C378.186,549.339,377.741,549.367,377.298,549.411z"/>
		<path fill="#FFFFFF" d="M68.45,274.333c-1.688,0-3.021-1.385-3.021-3.077c0-1.706,1.333-3.077,3.021-3.077
			c1.732,0,3.065,1.371,3.065,3.077C71.515,272.948,70.182,274.333,68.45,274.333z"/>
		<path fill="#BE1E2D" d="M563.22,466.449c0,0,2.354,35.203-0.178,44.113l-38.695-6.606l1.377-11.185l0.089-0.686
			c0-1.152-0.889-2.231-2.487-3.18l9.285-0.423c5.197,4.215,18.792-5.177,18.792-5.177
			C556.244,477.634,560.154,472.005,563.22,466.449z"/>
		<path fill="#FFFFFF" d="M211.456,258.963c0,1.691-1.289,3.062-2.977,3.062s-3.11-1.371-3.11-3.062c0-1.707,1.422-3.077,3.11-3.077
			S211.456,257.256,211.456,258.963z"/>
		<path fill="#652D90" d="M563.042,510.562l15.06,2.581l-48.068,27.766l-11.551-2.158c1.155-0.583,1.821-1.239,1.821-1.954
			l4.043-32.841L563.042,510.562z"/>
		<path fill="#EB008B" d="M323.453,184.911c0-5.439,4.398-9.844,9.862-9.844c5.465,0,9.863,4.404,9.863,9.844
			s-4.398,9.843-9.863,9.843C327.852,194.754,323.453,190.35,323.453,184.911z"/>
		<path fill="#00ADEE" d="M385.472,447.812c0.267,1.051,1.11,2.042,2.443,2.902c3.11,2.158,9.019,3.602,15.771,3.602
			c6.708,0,12.572-1.443,15.682-3.602c1.333-0.86,2.178-1.852,2.444-2.902l-3.865,37.931l-29.1-4.973L385.472,447.812z"/>
		<path fill="#FFF100" d="M367.568,555.886c-0.667,0.292-1.377,0.584-2.177,0.875l-2.399-1.181l-4.798-10.077v-0.015l8.264-17.587
			l3.198-6.796l9.151,24.397c0,1.342-0.488,2.64-1.51,3.908c-6.842,0.584-11.24,1.473-11.24,2.465l0.134,0.32L367.568,555.886z"/>
		<path fill="#292117" d="M462.417,493.354l-10.351-1.765l0.488-0.307c1.466-2.814,2.532-6.824,3.243-11.681h0.044l8.574,1.546
			C463.572,485.64,462.906,489.753,462.417,493.354z"/>
		<path fill="#292117" d="M563.042,510.562c2.532-8.91,0.178-44.113,0.178-44.113c7.729-13.723,10.617-26.949,10.617-39.054h4.265
			v85.748L563.042,510.562z"/>
		<polygon fill="#FFF100" points="439.094,522.695 409.64,513.144 434.918,500.004 455.842,504.671 		"/>
		<path fill="#00A551" d="M104.079,500.471l-2.754,21.918c0,2.261-6.708,4.099-15.016,4.099c-8.352,0-15.016-1.838-15.016-4.099
			l-1.866-15.006L104.079,500.471z"/>
		<path fill="#FFFFFF" d="M421.812,553.479c-5.243,0.948-14.839,1.59-25.856,1.59c-6.708,0-12.883-0.233-17.859-0.642
			c0.134-0.7,0.223-1.399,0.312-2.114C387.293,551.409,402.709,550.709,421.812,553.479z"/>
		<path fill="#FFC708" d="M492.76,364.602c0,0,0,0.029,0,0.073c-0.044-0.015-0.044-0.015-0.044-0.029v-0.015
			C492.76,364.616,492.76,364.602,492.76,364.602z"/>
		<path fill="#26A9E0" d="M155.657,435.373c3.776,9.304,8.13,19.001,12.794,27.663c4.976,9.202,10.307,17.223,15.727,22.371
			c2.221,2.114,4.442,3.732,6.664,4.754c8.13,3.689,14.527,0.787,17.548,9.857c0,0,1.999,14.088-21.946,11.083
			c0,0-17.459-6.708-23.057-12.366l-7.686-8.574l-4.265-4.754l-0.089,0.014h-0.578c-0.044-17.806-9.552-63.902-9.552-63.902
			l7.863-3.237C150.993,423.561,153.214,429.379,155.657,435.373z"/>
		<path fill="#FFF100" d="M370.145,553.479c0.533,0.103,1.155,0.205,1.777,0.277c-1.288,0.729-2.71,1.444-4.354,2.129l-1.377-3.689
			C366.635,552.663,368.013,553.101,370.145,553.479z"/>
		<path fill="#EB008B" d="M105.012,197.802c0,5.439-4.398,9.843-9.818,9.843c-5.464,0-9.863-4.404-9.863-9.843
			s4.398-9.843,9.863-9.843c2.354,0,4.531,0.831,6.22,2.246C103.635,192.012,105.012,194.739,105.012,197.802z"/>
		<path fill="#292117" d="M547.848,364.616c10.796-8.283,17.727-21.306,17.727-35.961h12.527v98.741h-4.265
			c0-35.67-25.012-61.759-25.989-62.765V364.616z"/>
		<path fill="#FFFFFF" d="M222.385,550.432c-0.978,0.015-1.955,0.015-2.932,0.015c-10.529,0-19.725-0.627-24.656-1.574
			c0,0,10.44-2.319,27.233-1.925C222.074,547.793,222.163,548.974,222.385,550.432z"/>
		<path fill="#00A551" d="M104.124,481.018c-20.392-8.998-34.697-0.569-35.629,0c-1.466-0.803-2.399-1.692-2.71-2.654l-0.089-0.686
			c0-0.233,0.044-0.452,0.089-0.686c1.066-3.354,9.818-5.979,20.524-5.979c11.417,0,20.614,2.989,20.614,6.664l-0.089,0.686
			C106.522,479.325,105.589,480.215,104.124,481.018z"/>
		<path fill="#EC1C24" d="M219.453,550.446c0.978,0,1.955,0,2.932-0.015c0.489,3.923,1.688,9.814,4.487,16.318
			c0.533,1.167,1.066,2.378,1.733,3.588c-2.754,0.131-5.864,0.204-9.152,0.204c-11.551,0-20.835-0.875-20.835-1.954l-7.597-20.999
			c0.444,0.466,1.777,0.903,3.776,1.283C199.728,549.819,208.924,550.446,219.453,550.446z"/>
		<path fill="#EC1C24" d="M226.916,515.798l-3.687-36.078l34.43-5.017l-4.131,41.095c0,2.449-5.953,4.433-13.328,4.433
			C232.825,520.23,226.916,518.247,226.916,515.798z"/>
		<path fill="#292117" d="M403.687,454.315c-6.753,0-12.661-1.443-15.771-3.602c0.578-0.467,13.283-9.873,31.453,0
			C416.259,452.872,410.395,454.315,403.687,454.315z"/>
		<path fill="#EC297B" d="M378.097,554.428c-2.354-0.175-4.442-0.408-6.175-0.671c0.488-0.263,0.933-0.539,1.333-0.802
			c1.333-0.189,3.065-0.423,5.153-0.642C378.319,553.028,378.23,553.728,378.097,554.428z"/>
		<polygon fill="#F6921E" points="300.441,522.695 313.458,521.105 300.441,541.58 300.396,541.58 289.957,534.741 284.359,555.521 
			276.717,547.822 276.717,547.808 282.226,524.897 282.315,524.897 		"/>
		<path fill="#BE1E2D" d="M492.76,364.675c-0.488,1.75-9.552,34.736-17.814,68.671v0.015l-17.859,19.804
			c-0.133-10.208-0.8-21.175-1.644-31.646h0.044c7.864-18.229,36.207-55.531,37.229-56.873
			C492.716,364.66,492.716,364.66,492.76,364.675z"/>
		<path fill="#FFFFFF" d="M558.332,255.886c0,1.691-1.332,3.077-3.021,3.077s-3.065-1.386-3.065-3.077
			c0-1.706,1.377-3.077,3.065-3.077S558.332,254.18,558.332,255.886z"/>
		<polygon fill="#29B473" points="151.348,538.839 127.491,519.502 145.973,513.144 177.559,527.901 		"/>
		<path fill="#FFFFFF" d="M55.077,205.75c1.688,0,3.021,1.385,3.021,3.077c0,1.706-1.333,3.077-3.021,3.077
			c-1.688,0-3.109-1.371-3.109-3.077C51.968,207.135,53.389,205.75,55.077,205.75z"/>
		<path fill="#292117" d="M455.798,479.603c1.11-7.291,1.422-16.493,1.288-26.424v-0.015l17.859-19.804
			c-4.087,16.945-7.997,34.139-10.529,47.788l-8.574-1.546H455.798z"/>
		<path fill="#FFFFFF" d="M363.304,215.447c0,1.706-1.422,3.077-3.065,3.077c-1.688,0-3.065-1.371-3.065-3.077
			c0-1.692,1.377-3.077,3.065-3.077C361.882,212.37,363.304,213.755,363.304,215.447z"/>
		<path fill="#8BC53F" d="M348.421,299.824c0-23.741,18.214-43.224,41.449-45.178c1.244-0.102,2.532-0.16,3.82-0.16
			c25.057,0,45.403,20.299,45.403,45.338c0,13.329-5.775,25.301-14.927,33.599c-8.086,7.277-18.748,11.725-30.477,11.725
			C368.679,345.148,348.421,324.863,348.421,299.824z"/>
		<path fill="#26A9E0" d="M150.771,485.421c0,2.684-0.178,4.711-0.667,5.862l-46.025,9.188l2.754-22.107l0.089-0.686
			c0-3.675-9.196-6.664-20.614-6.664c-10.707,0-19.458,2.625-20.524,5.979l-2-0.044c5.064-22.734,12.839-47.525,12.839-47.525
			c-26.345-11.404-34.608-33.614-34.608-57.02c0-39.578,23.679-82.598,23.679-82.598c20.258-9.931,21.058,9.027,21.058,9.027
			c-11.417,21.539-16.482,38.703-17.682,52.338c-0.444,2.494-0.666,5.06-0.666,7.685c0,7.248,1.688,14.102,4.753,20.183
			c7.641,16.77,22.879,21.758,24.745,22.312c0.089,0.015,0.133,0.044,0.178,0.059c4.887,1.794,10.129,2.771,15.638,2.771
			c10.307,0,19.858-3.456,27.5-9.289c0.222,0.729,3.154,10.412,7.863,23.391l-7.863,3.237
			C141.219,421.519,150.726,467.615,150.771,485.421z"/>
		<path fill="#FFFFFF" d="M222.207,546.947c-0.089-0.015-0.133-0.015-0.178,0c-0.044-0.773-0.044-1.255-0.044-1.4
			C221.985,546.014,222.074,546.48,222.207,546.947z"/>
		<path fill="#F6D39E" d="M294.354,565.584c-16.571-0.321-31.72-1.969-43.804-4.535l7.819-15.546v-0.015l5.375-10.747l12.972,13.066
			v0.015l7.642,7.699L294.354,565.584z"/>
		<path fill="#FFFFFF" d="M373.255,552.955c-0.4,0.263-0.845,0.539-1.333,0.802c-0.622-0.072-1.244-0.175-1.777-0.277
			C370.322,553.451,371.389,553.232,373.255,552.955z"/>
		<path fill="#FFFFFF" d="M134.422,232.334c1.644,0,3.065,1.386,3.065,3.077c0,1.706-1.422,3.077-3.065,3.077
			c-1.688,0-3.021-1.371-3.021-3.077C131.401,233.72,132.733,232.334,134.422,232.334z"/>
		<path fill="#231F20" d="M617.285,180.2v355.488L309.371,714.053L1.5,535.688V180.2L309.371,1.734L617.285,180.2z M599.071,525.175
			V190.612L309.371,23.332L19.625,190.612v334.562l289.745,167.28L599.071,525.175z"/>
		<polygon fill="#EB008B" points="305.417,213.405 281.827,248.886 265.522,208.827 		"/>
		<path fill="#EC1C24" d="M224.428,470.955c-1.288-0.875-2.132-1.853-2.399-2.902l-0.089-0.729c0-3.981,8.219-7.233,18.259-7.233
			c10.084,0,18.214,3.252,18.214,7.233l-0.089,0.729c-0.267,1.05-1.111,2.027-2.443,2.902
			C237.756,461.082,225.05,470.488,224.428,470.955z"/>
		<path fill="#BE1E2D" d="M484.675,492.771l0.577,4.491l-22.835-3.908c0.489-3.602,1.155-7.715,1.999-12.206
			c2.532-13.649,6.442-30.843,10.529-47.788v-0.015c8.263-33.935,17.326-66.921,17.814-68.671
			c7.597,5.848,17.148,9.318,27.544,9.318c10.352,0,19.903-3.485,27.544-9.362c0.978,1.006,25.989,27.095,25.989,62.765
			c0,12.104-2.888,25.331-10.617,39.054c-3.065,5.556-6.976,11.185-11.817,16.857c0,0-13.595,9.392-18.792,5.177l-9.285,0.423
			c-3.466-2.07-10.263-3.485-18.126-3.485c-11.417,0-20.613,2.99-20.613,6.665L484.675,492.771z"/>
		<path fill="#FFFFFF" d="M378.675,549.31c-0.045,1.021-0.134,2.026-0.267,3.004c-2.088,0.219-3.82,0.452-5.153,0.642
			c1.776-1.138,3.154-2.318,4.043-3.544C377.741,549.367,378.186,549.339,378.675,549.31z"/>
		<polygon fill="#F6934D" points="258.37,545.488 242.332,534.741 284.359,516.104 282.226,524.897 276.717,547.808 
			263.745,534.741 		"/>
		<path fill="#F6921E" d="M242.332,534.741l16.038,10.747v0.015l-7.819,15.546c-2.488-0.54-4.842-1.094-7.02-1.692l4.265-11.768
			l0.133-0.321c0-1.647-11.417-3.004-25.945-3.149v-23.013L242.332,534.741z"/>
		<path fill="#00ADEE" d="M419.368,450.714c-18.17-9.873-30.875-0.467-31.453,0c-1.333-0.86-2.177-1.852-2.443-2.902l-0.089-0.729
			c0-3.981,8.175-7.219,18.304-7.219c10.04,0,18.215,3.237,18.215,7.219l-0.089,0.729
			C421.546,448.862,420.701,449.854,419.368,450.714z"/>
		<path fill="#FFFFFF" d="M171.562,274.333c0,1.692-1.421,3.062-3.11,3.062c-1.644,0-2.976-1.371-2.976-3.062
			c0-1.706,1.333-3.077,2.976-3.077C170.14,271.256,171.562,272.627,171.562,274.333z"/>
		<path fill="#F9EC31" d="M524.347,503.956l-4.043,32.841c0,0.715-0.666,1.371-1.821,1.954c-2.576,1.269-7.553,2.144-13.283,2.144
			c-8.264,0-15.016-1.837-15.016-4.098l-4.932-39.534L524.347,503.956z"/>
		<path fill="#EB008B" d="M515.995,194.754c0-2.188,0.71-4.214,1.954-5.848c1.777-2.421,4.709-3.996,7.952-3.996
			c5.376,0,9.773,4.404,9.773,9.843s-4.397,9.843-9.773,9.843C520.438,204.597,515.995,200.193,515.995,194.754z"/>
		<path fill="#FFF100" d="M257.792,175.067c5.464,0,9.863,4.404,9.863,9.844s-4.398,9.843-9.863,9.843s-9.862-4.404-9.862-9.843
			S252.328,175.067,257.792,175.067z"/>
		<path fill="#FFFFFF" d="M333.938,235.411c0,1.706-1.332,3.077-3.021,3.077s-3.065-1.371-3.065-3.077
			c0-1.691,1.377-3.077,3.065-3.077S333.938,233.72,333.938,235.411z"/>
		<polygon fill="#292117" points="372.766,486.15 352.952,509.862 327.852,501.652 351.886,481.163 		"/>
		<path fill="#37B34A" d="M357.128,372.126l-1.865-0.072c-6.042-6.825-11.106-13.314-15.372-19.512
			c-7.463-10.85-12.395-20.751-15.326-29.749c-18.393-56.465,41.493-77.698,41.493-77.698c20.702-6.008,23.679,9.392,23.679,9.392
			l0.134,0.16c-23.235,1.954-41.449,21.437-41.449,45.178c0,25.039,20.258,45.324,45.27,45.324c11.729,0,22.391-4.448,30.477-11.725
			c1.466-0.277,19.458-5.352,24.212-89.729c0,0,11.062-33.38,25.989,0c0,0,4.753,34.27-3.243,73.513
			c-3.776,18.185-10.263,37.435-21.236,54.847c0,0,3.421,23.172,5.554,49.465c0.844,10.471,1.511,21.438,1.644,31.646v0.015
			c0.134,9.931-0.178,19.133-1.288,26.424c-0.711,4.856-1.777,8.866-3.243,11.681l-0.488,0.307l-34.119-5.848l3.865-37.931
			l0.089-0.729c0-3.981-8.175-7.219-18.215-7.219c-10.129,0-18.304,3.237-18.304,7.219l0.089,0.729l3.376,32.958l-57.931-9.902
			C336.248,430.123,349.398,391.959,357.128,372.126z"/>
		<path fill="#231F20" d="M374.188,116.093c0,0,33.187,8.706,31.187-12.643l0.622-0.117l124.259,71.763
			c-17.503,5.075-37.983,3.223-57.442-1.415c-9.64-2.29-19.014-5.279-27.677-8.458c-25.189-9.26-43.938-20.139-43.938-20.139
			c-11.462,6.183-21.812,10.485-31.098,13.387v0.015c-35.407,11.112-54.999,1.925-60.197-1.152
			c-2.754,1.619-9.596,4.958-20.658,6.096c-8.13,0.846-18.614,0.481-31.454-2.625v-0.015c-11.329-2.727-24.523-7.612-39.627-15.706
			c0,0-18.837,10.879-44.115,20.139c-10.529,3.864-22.168,7.437-34.074,9.843c-9.952,2.027-20.125,3.223-29.898,3.033
			c-7.464-0.117-14.75-1.05-21.591-3.033l124.703-72.025l2.222,0.409c-2,21.349,31.187,12.643,31.187,12.643
			c-0.222,30.77,38.695,14,38.695,14c31.853-21,20.036-78.588,20.036-78.588l-2.177-0.408l6.22-3.587l6.708,3.879l-0.622,0.117
			c0,0-11.817,57.588,20.036,78.588C335.493,130.093,374.41,146.863,374.188,116.093z"/>
		<path fill="#FFFFFF" d="M222.207,546.947c0.311,1.181,1.022,2.333,2.132,3.456c-0.666,0.015-1.288,0.015-1.955,0.028
			c-0.222-1.458-0.311-2.639-0.355-3.484C222.074,546.933,222.118,546.933,222.207,546.947z"/>
		<polygon fill="#00ADEE" points="398.8,235.411 392.047,192.727 429.809,206.187 		"/>
		<path fill="#FFFFFF" d="M500.534,218.524c0,1.692-1.332,3.077-3.065,3.077c-1.688,0-3.021-1.385-3.021-3.077
			c0-1.706,1.333-3.077,3.021-3.077C499.202,215.447,500.534,216.818,500.534,218.524z"/>
		<path fill="#231F20" d="M484.586,204.597c-5.465,0-9.863-4.404-9.863-9.843c0-2.654,1.022-5.046,2.755-6.81
			c1.777-1.881,4.31-3.033,7.108-3.033c5.464,0,9.862,4.404,9.862,9.843S490.05,204.597,484.586,204.597z"/>
		<path fill="#292117" d="M476.367,317.324c-0.934,3.617-1.422,7.423-1.422,11.331c0,14.656,6.931,27.693,17.771,35.976v0.015
			c-1.022,1.342-29.365,38.645-37.229,56.873h-0.044c-2.133-26.293-5.554-49.465-5.554-49.465
			c10.974-17.412,17.46-36.662,21.236-54.847L476.367,317.324z"/>
		<path fill="#7951A0" d="M174.405,187.973c0-5.439,4.398-9.843,9.774-9.843c5.509,0,9.907,4.404,9.907,9.843
			s-4.398,9.844-9.907,9.844C178.803,197.816,174.405,193.412,174.405,187.973z"/>
		<path fill="#00A551" d="M374.144,573.196l-1.2-3.208c0.756-1.415,1.467-2.873,2.044-4.39c0.044,0,0.044-0.015,0.044-0.015
			c1.422-3.412,2.488-7.131,3.065-11.156c4.977,0.408,11.151,0.642,17.859,0.642c11.018,0,20.613-0.642,25.856-1.59
			c2.665-0.466,4.176-1.021,4.176-1.604l-8.13,21.32c0,1.094-9.773,1.969-21.902,1.969
			C383.917,575.165,374.144,574.29,374.144,573.196z"/>
		<path fill="#FFF100" d="M405.463,184.911c-5.464,0-9.862-4.419-9.862-9.844c0-5.439,4.398-9.843,9.862-9.843
			c2.577,0,4.977,1.021,6.709,2.698c1.865,1.779,3.065,4.331,3.065,7.146C415.237,180.492,410.839,184.911,405.463,184.911z"/>
		<path fill="#292117" d="M505.199,498.75c-7.642,0-14.261-1.342-17.814-3.325c0.933-0.568,15.237-8.997,35.629,0
			C519.46,497.408,512.841,498.75,505.199,498.75z"/>
		<path fill="#FFFFFF" d="M372.943,569.988l-1.154-3.005c1.065-0.438,2.132-0.903,3.198-1.385
			C374.41,567.115,373.699,568.573,372.943,569.988z"/>
		<path fill="#00ADEE" d="M390.358,495.557l-1.511-14.787l29.1,4.973l-1.022,9.814c0,2.464-5.953,4.447-13.238,4.447
			C396.312,500.004,390.358,498.021,390.358,495.557z"/>
		<path fill="#D91C5C" d="M371.789,566.983l-4.221-11.098c1.644-0.685,3.065-1.399,4.354-2.129c1.732,0.263,3.82,0.496,6.175,0.671
			c-0.577,4.025-1.644,7.744-3.065,11.156c0,0,0,0.015-0.044,0.015C373.921,566.08,372.854,566.546,371.789,566.983z"/>
		<path fill="#292117" d="M255.882,470.955c-3.11,2.144-8.974,3.587-15.682,3.587c-6.708,0-12.573-1.443-15.771-3.587
			C225.05,470.488,237.756,461.082,255.882,470.955z"/>
		<path fill="#FFF100" d="M289.246,313.518c0,6.446-1.333,12.57-3.776,18.126c-6.975,16.012-22.923,27.212-41.494,27.212
			c-7.997,0-15.504-2.056-21.991-5.673c-13.95-7.729-23.368-22.604-23.368-39.666c0-25.039,20.258-45.338,45.358-45.338
			C268.987,268.179,289.246,288.479,289.246,313.518z"/>
		<path fill="#EC1C24" d="M474.945,328.655c0-3.908,0.488-7.714,1.422-11.331c5.02-19.556,22.746-34.007,43.937-34.007
			c25.012,0,45.271,20.299,45.271,45.338c0,14.656-6.931,27.678-17.727,35.961v0.015c-7.641,5.877-17.192,9.362-27.544,9.362
			c-10.396,0-19.947-3.471-27.544-9.318c0-0.044,0-0.073,0-0.073s0,0.015-0.044,0.029
			C481.876,356.348,474.945,343.311,474.945,328.655z"/>
		<path fill="#FFF100" d="M19.625,525.175V190.612L309.371,23.332l289.701,167.281v334.562l-289.701,167.28L19.625,525.175z
			 M578.102,427.396v-98.741V202.746l-47.847-27.649l-124.259-71.763l-89.917-51.945l-6.708-3.879l-6.22,3.587l-89.962,51.944
			L88.485,175.067L40.55,202.746v169.658v140.74l268.82,155.235l220.663-127.47l48.068-27.766V427.396z"/>
		<path fill="#FFFFFF" d="M434.918,243.694c0,1.706-1.333,3.077-3.021,3.077c-1.732,0-3.065-1.371-3.065-3.077
			c0-1.692,1.333-3.062,3.065-3.062C433.585,240.632,434.918,242.002,434.918,243.694z"/>
		<polygon fill="#37B34A" points="106.211,230.817 70.671,255.375 66.406,215.447 		"/>
		<path fill="#F6921E" d="M243.531,559.356c-9.151-2.479-15.86-5.541-19.192-8.953c8.396-0.161,15.549-0.744,19.681-1.531
			c1.999-0.38,3.332-0.817,3.776-1.283L243.531,559.356z"/>
		<path fill="#00ADEE" d="M370.101,169.219c5.375,0,9.818,4.404,9.818,9.843s-4.443,9.844-9.818,9.844
			c-5.465,0-9.862-4.404-9.862-9.844S364.636,169.219,370.101,169.219z"/>
		<path fill="#F9EC31" d="M487.385,495.425c-1.467-0.802-2.399-1.691-2.71-2.653l-0.089-0.686c0-3.675,9.196-6.665,20.613-6.665
			c7.863,0,14.66,1.415,18.126,3.485c1.599,0.948,2.487,2.027,2.487,3.18l-0.089,0.686c-0.311,0.962-1.244,1.852-2.71,2.653
			C502.622,486.428,488.317,494.856,487.385,495.425z"/>
		<path fill="#FFFFFF" d="M127.491,283.316c0,1.706-1.421,3.077-3.11,3.077c-1.644,0-3.065-1.371-3.065-3.077
			c0-1.692,1.421-3.077,3.065-3.077C126.07,280.239,127.491,281.625,127.491,283.316z"/>
		<path fill="#EC1C24" d="M223.229,479.72l-1.2-11.667c0.267,1.05,1.111,2.027,2.399,2.902c3.199,2.144,9.063,3.587,15.771,3.587
			c6.708,0,12.572-1.443,15.682-3.587c1.333-0.875,2.177-1.853,2.443-2.902l-0.667,6.65L223.229,479.72z"/>
		<path fill="#5E55A3" d="M246.597,116.093c0,0-33.186,8.706-31.187-12.643l-2.222-0.409l89.962-51.944l2.177,0.408
			c0,0,11.817,57.588-20.036,78.588C285.292,130.093,246.375,146.863,246.597,116.093z"/>
		<path fill="#00A551" d="M86.309,484.342c7.641,0,14.261-1.341,17.815-3.324c1.466-0.803,2.399-1.692,2.71-2.654l-2.754,22.107
			l-34.652,6.912l-3.643-29.02c0.311,0.962,1.244,1.852,2.71,2.654C72.048,483.001,78.667,484.342,86.309,484.342z"/>
		<path fill="#26A9E0" d="M63.785,476.948l2,0.044c-0.044,0.233-0.089,0.452-0.089,0.686l0.089,0.686l3.643,29.02l-9.773,1.94
			C58.72,502.818,60.764,490.233,63.785,476.948z"/>
		<path fill="#FFFFFF" d="M237.001,569.623c-2.044,0.307-4.931,0.555-8.396,0.715c-0.667-1.21-1.2-2.421-1.733-3.588h0.044
			C226.916,566.75,230.604,567.976,237.001,569.623z"/>
		<polygon fill="#F6921E" points="343.09,547.822 328.385,534.741 328.429,534.741 337.937,530.104 356.328,521.105 
			366.413,527.901 366.458,527.901 358.194,545.488 353.085,534.741 343.179,547.822 		"/>
		<path fill="#292117" d="M40.55,372.403h1.466c0,23.405,8.263,45.615,34.608,57.02c0,0-7.775,24.791-12.839,47.525
			c-3.021,13.285-5.064,25.87-4.131,32.375l-19.103,3.82V372.403z"/>
		<path fill="#29B473" d="M237.001,569.623c23.679,6.154,84.542,18.331,134.788-2.64l1.154,3.005
			c-18.214,33.657-72.502,35.437-72.502,35.437c-44.115,0-63.396-18.608-71.836-35.087
			C232.07,570.178,234.957,569.93,237.001,569.623z"/>
		<path fill="#292117" d="M208.479,404.165c0,0-12.839,69.371-9.862,79.142l-14.438,2.101c-5.42-5.148-10.751-13.169-15.727-22.371
			h0.044C171.562,434.002,208.479,404.165,208.479,404.165z"/>
		<path fill="#FFFFFF" d="M497.469,262.025c-1.688,0-3.021-1.371-3.021-3.062c0-1.707,1.333-3.077,3.021-3.077
			c1.733,0,3.065,1.371,3.065,3.077C500.534,260.654,499.202,262.025,497.469,262.025z"/>
		<path fill="#FFFFFF" d="M303.506,271.256c0,1.692-1.422,3.077-3.065,3.077c-1.688,0-3.11-1.385-3.11-3.077
			c0-1.706,1.421-3.077,3.11-3.077C302.084,268.179,303.506,269.55,303.506,271.256z"/>
		<path fill="#F9EC31" d="M222.029,468.053l1.2,11.667l-24.612,3.587c-2.977-9.771,9.862-79.142,9.862-79.142
			s-36.918,29.837-39.983,58.871h-0.044c-4.665-8.662-9.018-18.359-12.794-27.663h0.044c19.103-71.938,66.283-82.19,66.283-82.19
			c6.486,3.617,13.994,5.673,21.991,5.673c18.57,0,34.519-11.2,41.494-27.212c0,0,26.256-9.129,39.095-8.852
			c2.932,8.998,7.863,18.899,15.326,29.749c0,0-44.559,16.479-45.536,19.512c0,0,17.904,83.21,15.016,95.124l-51.712,7.525
			l0.667-6.65l0.089-0.729c0-3.981-8.13-7.233-18.214-7.233c-10.041,0-18.259,3.252-18.259,7.233L222.029,468.053z"/>
		<path fill="#F6921E" d="M244.02,548.872c-4.131,0.787-11.284,1.37-19.681,1.531c-1.11-1.123-1.821-2.275-2.132-3.456
			C228.604,547.093,235.979,547.632,244.02,548.872z"/>
		<polygon fill="#26A9E0" points="311.281,489.577 289.246,501.652 265.522,485.421 285.469,478.946 		"/>
		<path fill="#FFF100" d="M151.082,197.802c0,5.439-4.398,9.843-9.907,9.843c-5.42,0-9.773-4.404-9.773-9.843
			s4.354-9.843,9.773-9.843C146.683,187.958,151.082,192.362,151.082,197.802z"/>
		<polygon fill="#EC1C24" points="484.586,521.105 464.461,544.104 443.848,534.741 464.461,516.104 		"/>
		<polygon fill="#EC1C24" points="535.586,253.333 509.197,219.122 548.87,212.793 		"/>
		<path fill="#FFF100" d="M366.058,551.876c0-0.992,4.398-1.881,11.24-2.465c-0.889,1.226-2.267,2.406-4.043,3.544
			c-1.866,0.277-2.933,0.496-3.11,0.524c-2.132-0.379-3.51-0.816-3.953-1.283L366.058,551.876z"/>
		<path fill="#FFFFFF" d="M561.397,221.601c0,1.692-1.332,3.062-3.065,3.062c-1.688,0-3.021-1.371-3.021-3.062
			c0-1.706,1.333-3.077,3.021-3.077C560.065,218.524,561.397,219.895,561.397,221.601z"/>
		<path fill="#F9EC31" d="M484.675,492.771c0.311,0.962,1.243,1.852,2.71,2.653c3.554,1.983,10.173,3.325,17.814,3.325
			s14.261-1.342,17.814-3.325c1.466-0.802,2.399-1.691,2.71-2.653l-1.377,11.185l-39.095-6.693L484.675,492.771z"/>
		<path fill="#FFF100" d="M313.502,550.141l-7.463,15.443v0.015c-1.866,0.044-3.732,0.058-5.598,0.058
			c-2.043,0-4.087-0.014-6.086-0.072l-9.996-10.062l5.598-20.78l10.44,6.839l13.061,8.561H313.502z"/>
		<path fill="#FFFFFF" d="M250.995,246.771c0,1.706-1.377,3.077-3.065,3.077c-1.688,0-3.021-1.371-3.021-3.077
			c0-1.692,1.333-3.077,3.021-3.077C249.618,243.694,250.995,245.08,250.995,246.771z"/>
		<path fill="#292117" d="M86.309,484.342c-7.641,0-14.261-1.341-17.814-3.324c0.933-0.569,15.238-8.998,35.629,0
			C100.569,483.001,93.95,484.342,86.309,484.342z"/>
		<path fill="#F6921E" d="M221.985,544.118c14.527,0.146,25.945,1.502,25.945,3.149l-0.133,0.321
			c-0.444,0.466-1.777,0.903-3.776,1.283c-8.041-1.24-15.416-1.779-21.813-1.925c-0.133-0.467-0.222-0.934-0.222-1.4
			c0-0.029,0-0.044,0-0.044V544.118z"/>
		<path fill="#292117" d="M330.917,470.867l-21.546-3.689c2.888-11.914-15.016-95.124-15.016-95.124
			c0.978-3.033,45.536-19.512,45.536-19.512c4.266,6.198,9.33,12.687,15.372,19.512l1.865,0.072
			C349.398,391.959,336.248,430.123,330.917,470.867z"/>
		<path fill="#F6D41C" d="M365.392,556.761c-8.441,3.224-20.392,5.775-34.475,7.307v-0.015l12.262-16.23l9.906-13.081l5.109,10.747
			v0.015l4.798,10.077L365.392,556.761z"/>
		<path fill="#FFFFFF" d="M421.812,553.479c-19.104-2.771-34.52-2.07-43.404-1.166c0.133-0.978,0.222-1.983,0.267-3.004
			c4.887-0.38,10.84-0.599,17.281-0.599c16.571,0,30.032,1.43,30.032,3.165C425.988,552.459,424.478,553.014,421.812,553.479z"/>
		<path fill="#D91C5C" d="M243.531,559.356l-3.332,9.231c0,0.379-1.155,0.729-3.199,1.035c-6.397-1.647-10.085-2.873-10.085-2.873
			h-0.044c-2.799-6.504-3.998-12.396-4.487-16.318c0.667-0.014,1.289-0.014,1.955-0.028
			C227.671,553.815,234.38,556.878,243.531,559.356z"/>
		<path fill="#FFFFFF" d="M190.887,547.268c0-1.735,12.75-3.164,28.566-3.164c0.844,0,1.688,0,2.532,0.015v1.385
			c0,0,0,0.015,0,0.044c0,0.146,0,0.627,0.044,1.4c-16.793-0.395-27.233,1.925-27.233,1.925c-1.999-0.38-3.332-0.817-3.776-1.283
			L190.887,547.268z"/>
		<path fill="#7951A0" d="M297.909,194.754c-5.464,0-9.863-4.404-9.863-9.843c0-3.194,1.511-6.038,3.91-7.831
			c1.644-1.269,3.732-2.013,5.953-2.013c5.42,0,9.818,4.404,9.818,9.844S303.329,194.754,297.909,194.754z"/>
		<path fill="#7951A0" d="M445.891,179.062c3.377,1.575,5.687,4.973,5.687,8.91c0,5.439-4.398,9.844-9.862,9.844
			c-5.465,0-9.818-4.404-9.818-9.844s4.354-9.843,9.818-9.843C443.226,178.129,444.646,178.465,445.891,179.062z"/>
		<path fill="#D91C5C" d="M371.789,566.983c-50.246,20.971-111.109,8.794-134.788,2.64c2.043-0.306,3.199-0.656,3.199-1.035
			l3.332-9.231c2.177,0.599,4.532,1.152,7.02,1.692c12.084,2.566,27.233,4.214,43.804,4.535c1.999,0.059,4.043,0.072,6.086,0.072
			c1.866,0,3.732-0.014,5.598-0.058c8.796-0.146,17.148-0.686,24.878-1.531c14.083-1.531,26.033-4.083,34.475-7.307
			c0.8-0.291,1.51-0.583,2.177-0.875L371.789,566.983z"/>
		<polygon fill="#F6D41C" points="313.458,521.105 300.441,522.695 300.441,522.651 313.458,511.102 337.937,530.104 
			328.429,534.741 328.385,534.741 323.187,530.104 313.502,550.141 313.458,550.141 300.396,541.58 300.441,541.58 		"/>
		<path fill="#292117" d="M428.831,243.694c0,1.706,1.333,3.077,3.065,3.077c1.688,0,3.021-1.371,3.021-3.077
			c0-1.692-1.333-3.062-3.021-3.062C430.164,240.632,428.831,242.002,428.831,243.694z M392.047,192.727l6.753,42.684l31.009-29.224
			L392.047,192.727z M555.312,258.963c1.688,0,3.021-1.386,3.021-3.077c0-1.706-1.332-3.077-3.021-3.077s-3.065,1.371-3.065,3.077
			C552.246,257.577,553.623,258.963,555.312,258.963z M165.476,274.333c0,1.692,1.333,3.062,2.976,3.062
			c1.688,0,3.11-1.371,3.11-3.062c0-1.706-1.421-3.077-3.11-3.077C166.808,271.256,165.476,272.627,165.476,274.333z
			 M208.479,262.025c1.688,0,2.977-1.371,2.977-3.062c0-1.707-1.289-3.077-2.977-3.077s-3.11,1.371-3.11,3.077
			C205.37,260.654,206.792,262.025,208.479,262.025z M134.422,238.488c1.644,0,3.065-1.371,3.065-3.077
			c0-1.691-1.422-3.077-3.065-3.077c-1.688,0-3.021,1.386-3.021,3.077C131.401,237.117,132.733,238.488,134.422,238.488z
			 M68.45,274.333c1.732,0,3.065-1.385,3.065-3.077c0-1.706-1.333-3.077-3.065-3.077c-1.688,0-3.021,1.371-3.021,3.077
			C65.429,272.948,66.761,274.333,68.45,274.333z M360.238,218.524c1.644,0,3.065-1.371,3.065-3.077
			c0-1.692-1.422-3.077-3.065-3.077c-1.688,0-3.065,1.385-3.065,3.077C357.173,217.153,358.55,218.524,360.238,218.524z
			 M360.238,179.062c0,5.439,4.397,9.844,9.862,9.844c5.375,0,9.818-4.404,9.818-9.844s-4.443-9.843-9.818-9.843
			C364.636,169.219,360.238,173.623,360.238,179.062z M330.917,238.488c1.688,0,3.021-1.371,3.021-3.077
			c0-1.691-1.332-3.077-3.021-3.077s-3.065,1.386-3.065,3.077C327.852,237.117,329.229,238.488,330.917,238.488z M247.93,184.911
			c0,5.439,4.398,9.843,9.862,9.843s9.863-4.404,9.863-9.843s-4.398-9.844-9.863-9.844S247.93,179.471,247.93,184.911z
			 M297.909,194.754c5.42,0,9.818-4.404,9.818-9.843s-4.398-9.844-9.818-9.844c-2.221,0-4.31,0.744-5.953,2.013
			c-2.399,1.793-3.91,4.637-3.91,7.831C288.046,190.35,292.444,194.754,297.909,194.754z M70.671,255.375l35.541-24.558
			l-39.806-15.37L70.671,255.375z M265.522,208.827l16.305,40.059l23.59-35.48L265.522,208.827z M244.909,246.771
			c0,1.706,1.333,3.077,3.021,3.077c1.688,0,3.065-1.371,3.065-3.077c0-1.692-1.377-3.077-3.065-3.077
			C246.241,243.694,244.909,245.08,244.909,246.771z M494.448,258.963c0,1.691,1.333,3.062,3.021,3.062
			c1.733,0,3.065-1.371,3.065-3.062c0-1.707-1.332-3.077-3.065-3.077C495.781,255.886,494.448,257.256,494.448,258.963z
			 M300.441,274.333c1.644,0,3.065-1.385,3.065-3.077c0-1.706-1.422-3.077-3.065-3.077c-1.688,0-3.11,1.371-3.11,3.077
			C297.331,272.948,298.752,274.333,300.441,274.333z M51.968,208.827c0,1.706,1.421,3.077,3.109,3.077
			c1.688,0,3.021-1.371,3.021-3.077c0-1.692-1.333-3.077-3.021-3.077C53.389,205.75,51.968,207.135,51.968,208.827z
			 M188.132,253.728l10.44-41.343l-39.139,9.012L188.132,253.728z M174.405,187.973c0,5.439,4.398,9.844,9.774,9.844
			c5.509,0,9.907-4.404,9.907-9.844s-4.398-9.843-9.907-9.843C178.803,178.129,174.405,182.533,174.405,187.973z M333.315,175.067
			c-5.464,0-9.862,4.404-9.862,9.844s4.398,9.843,9.862,9.843c5.465,0,9.863-4.404,9.863-9.843S338.78,175.067,333.315,175.067z
			 M209.546,175.067c0,5.425,4.398,9.844,9.818,9.844c5.464,0,9.863-4.419,9.863-9.844c0-5.439-4.398-9.843-9.863-9.843
			C213.944,165.224,209.546,169.627,209.546,175.067z M558.332,218.524c-1.688,0-3.021,1.371-3.021,3.077
			c0,1.692,1.333,3.062,3.021,3.062c1.733,0,3.065-1.371,3.065-3.062C561.397,219.895,560.065,218.524,558.332,218.524z
			 M95.194,207.645c5.42,0,9.818-4.404,9.818-9.843c0-3.062-1.377-5.79-3.598-7.598c-1.688-1.415-3.865-2.246-6.22-2.246
			c-5.464,0-9.863,4.404-9.863,9.843S89.729,207.645,95.194,207.645z M484.586,184.911c-2.799,0-5.331,1.152-7.108,3.033
			c-1.732,1.764-2.755,4.156-2.755,6.81c0,5.439,4.398,9.843,9.863,9.843c5.464,0,9.862-4.404,9.862-9.843
			S490.05,184.911,484.586,184.911z M124.381,286.393c1.688,0,3.11-1.371,3.11-3.077c0-1.692-1.421-3.077-3.11-3.077
			c-1.644,0-3.065,1.385-3.065,3.077C121.316,285.022,122.738,286.393,124.381,286.393z M509.197,219.122l26.389,34.211
			l13.284-40.541L509.197,219.122z M497.469,221.601c1.733,0,3.065-1.385,3.065-3.077c0-1.706-1.332-3.077-3.065-3.077
			c-1.688,0-3.021,1.371-3.021,3.077C494.448,220.216,495.781,221.601,497.469,221.601z M405.463,184.911
			c5.376,0,9.774-4.419,9.774-9.844c0-2.814-1.2-5.367-3.065-7.146c-1.732-1.677-4.132-2.698-6.709-2.698
			c-5.464,0-9.862,4.404-9.862,9.843C395.601,180.492,399.999,184.911,405.463,184.911z M431.896,187.973
			c0,5.439,4.354,9.844,9.818,9.844c5.464,0,9.862-4.404,9.862-9.844c0-3.937-2.31-7.335-5.687-8.91
			c-1.244-0.598-2.665-0.933-4.176-0.933C436.25,178.129,431.896,182.533,431.896,187.973z M525.901,184.911
			c-3.243,0-6.175,1.575-7.952,3.996c-1.244,1.633-1.954,3.66-1.954,5.848c0,5.439,4.442,9.843,9.906,9.843
			c5.376,0,9.773-4.404,9.773-9.843S531.277,184.911,525.901,184.911z M226.916,221.601c1.688,0,3.021-1.385,3.021-3.077
			c0-1.706-1.333-3.077-3.021-3.077c-1.732,0-3.065,1.371-3.065,3.077C223.851,220.216,225.184,221.601,226.916,221.601z
			 M393.69,254.486c-1.288,0-2.576,0.058-3.82,0.16l-0.134-0.16c0,0-2.977-15.4-23.679-9.392c0,0-59.886,21.233-41.493,77.698
			c-12.839-0.277-39.095,8.852-39.095,8.852c2.443-5.556,3.776-11.681,3.776-18.126c0-25.039-20.258-45.338-45.27-45.338
			c-25.101,0-45.358,20.299-45.358,45.338c0,17.062,9.418,31.937,23.368,39.666c0,0-47.18,10.251-66.283,82.19h-0.044
			c-2.443-5.994-4.665-11.812-6.575-17.092c-4.709-12.979-7.641-22.662-7.863-23.391c10.84-8.283,17.859-21.35,17.859-36.035
			c0-25.039-20.347-45.338-45.359-45.338c-22.435,0-41.005,16.274-44.648,37.653c1.2-13.635,6.264-30.799,17.682-52.338
			c0,0-0.8-18.958-21.058-9.027c0,0-23.679,43.02-23.679,82.598H40.55V202.746l47.935-27.679c6.842,1.983,14.127,2.917,21.591,3.033
			c9.773,0.189,19.947-1.006,29.898-3.033c11.906-2.406,23.545-5.979,34.074-9.843c25.278-9.26,44.115-20.139,44.115-20.139
			c15.104,8.093,28.299,12.979,39.627,15.706v0.015c12.839,3.106,23.324,3.471,31.454,2.625c11.062-1.137,17.903-4.477,20.658-6.096
			c5.198,3.077,24.79,12.264,60.197,1.152v-0.015c9.285-2.902,19.636-7.204,31.098-13.387c0,0,18.748,10.879,43.938,20.139
			c8.663,3.179,18.037,6.168,27.677,8.458c19.459,4.637,39.939,6.489,57.442,1.415l47.847,27.649v125.909h-12.527
			c0-25.039-20.259-45.338-45.271-45.338c-21.19,0-38.917,14.452-43.937,34.007l-5.242-0.117
			c7.996-39.243,3.243-73.513,3.243-73.513c-14.928-33.38-25.989,0-25.989,0c-4.754,84.377-22.746,89.452-24.212,89.729
			c9.151-8.298,14.927-20.271,14.927-33.599C439.094,274.785,418.747,254.486,393.69,254.486z M141.174,187.958
			c-5.42,0-9.773,4.404-9.773,9.843s4.354,9.843,9.773,9.843c5.509,0,9.907-4.404,9.907-9.843S146.683,187.958,141.174,187.958z"/>
	</g>
	<g>
		<polyline fill="none" stroke="#231F20" stroke-width="3" stroke-miterlimit="10" points="69.427,507.383 59.653,509.323 
			40.55,513.144 		"/>
		<polyline fill="none" stroke="#231F20" stroke-width="3" stroke-miterlimit="10" points="155.702,490.161 150.104,491.283 
			104.079,500.471 		"/>
		<path fill="none" stroke="#231F20" stroke-width="3" stroke-miterlimit="10" d="M417.858,573.196
			c0,1.094-9.773,1.969-21.902,1.969c-12.039,0-21.812-0.875-21.812-1.969"/>
		<path fill="none" stroke="#231F20" stroke-width="3" stroke-miterlimit="10" d="M378.675,549.31
			c4.887-0.38,10.84-0.599,17.281-0.599c16.571,0,30.032,1.43,30.032,3.165c0,0.583-1.511,1.138-4.176,1.604
			c-5.243,0.948-14.839,1.59-25.856,1.59c-6.708,0-12.883-0.233-17.859-0.642"/>
		
			<line fill="none" stroke="#231F20" stroke-width="3" stroke-miterlimit="10" x1="372.943" y1="569.988" x2="374.144" y2="573.196"/>
		
			<line fill="none" stroke="#231F20" stroke-width="3" stroke-miterlimit="10" x1="425.988" y1="551.876" x2="417.858" y2="573.196"/>
		<path fill="none" stroke="#231F20" stroke-width="3" stroke-miterlimit="10" d="M378.408,552.313
			c8.885-0.904,24.301-1.604,43.404,1.166c0.044,0,0.044,0.015,0.089,0.015"/>
		<polygon fill="none" stroke="#231F20" stroke-width="3" stroke-miterlimit="10" points="617.285,535.688 309.371,714.053 
			1.5,535.688 1.5,180.2 309.371,1.734 617.285,180.2 		"/>
		<path fill="none" stroke="#231F20" stroke-width="3" stroke-miterlimit="10" d="M389.87,254.646c1.244-0.102,2.532-0.16,3.82-0.16
			c25.057,0,45.403,20.299,45.403,45.338c0,13.329-5.775,25.301-14.927,33.599c-8.086,7.277-18.748,11.725-30.477,11.725
			c-25.012,0-45.27-20.285-45.27-45.324C348.421,276.083,366.635,256.6,389.87,254.646z"/>
		<path fill="none" stroke="#231F20" stroke-width="3" stroke-miterlimit="10" d="M221.985,353.183
			c-13.95-7.729-23.368-22.604-23.368-39.666c0-25.039,20.258-45.338,45.358-45.338c25.012,0,45.27,20.299,45.27,45.338
			c0,6.446-1.333,12.57-3.776,18.126c-6.975,16.012-22.923,27.212-41.494,27.212C235.979,358.856,228.471,356.8,221.985,353.183z"/>
		<path fill="none" stroke="#231F20" stroke-width="3" stroke-miterlimit="10" d="M492.716,364.631
			c-10.84-8.283-17.771-21.32-17.771-35.976c0-3.908,0.488-7.714,1.422-11.331c5.02-19.556,22.746-34.007,43.937-34.007
			c25.012,0,45.271,20.299,45.271,45.338c0,14.656-6.931,27.678-17.727,35.961"/>
		<path fill="none" stroke="#231F20" stroke-width="3" stroke-miterlimit="10" d="M547.848,364.631
			c-7.641,5.877-17.192,9.362-27.544,9.362c-10.396,0-19.947-3.471-27.544-9.318c-0.044-0.015-0.044-0.015-0.044-0.029"/>
		<path fill="none" stroke="#231F20" stroke-width="3" stroke-miterlimit="10" d="M97.904,401.351
			c-10.795-4.024-19.681-12.074-24.745-22.312c-3.065-6.081-4.753-12.936-4.753-20.183c0-2.625,0.222-5.191,0.666-7.685
			c3.643-21.379,22.213-37.653,44.648-37.653c25.012,0,45.359,20.299,45.359,45.338c0,14.685-7.02,27.751-17.859,36.035
			c-7.641,5.833-17.192,9.289-27.5,9.289c-5.509,0-10.751-0.977-15.638-2.771"/>
		<polyline fill="none" stroke="#231F20" stroke-width="3" stroke-miterlimit="10" points="524.347,503.956 563.042,510.562 
			578.102,513.144 		"/>
		<polyline fill="none" stroke="#231F20" stroke-width="3" stroke-miterlimit="10" points="417.947,485.742 452.066,491.59 
			462.417,493.354 485.252,497.263 		"/>
		<polyline fill="none" stroke="#231F20" stroke-width="3" stroke-miterlimit="10" points="257.659,474.703 309.371,467.178 
			330.917,470.867 388.848,480.77 		"/>
		<polyline fill="none" stroke="#231F20" stroke-width="3" stroke-miterlimit="10" points="184.179,485.407 198.617,483.307 
			223.229,479.72 		"/>
		<path fill="none" stroke="#231F20" stroke-width="3" stroke-miterlimit="10" d="M228.604,570.338
			c-2.754,0.131-5.864,0.204-9.152,0.204c-11.551,0-20.835-0.875-20.835-1.954"/>
		<path fill="none" stroke="#231F20" stroke-width="3" stroke-miterlimit="10" d="M190.887,547.268
			c0-1.735,12.75-3.164,28.566-3.164c0.844,0,1.688,0,2.532,0.015"/>
		<path fill="none" stroke="#231F20" stroke-width="3" stroke-miterlimit="10" d="M222.385,550.432
			c-0.978,0.015-1.955,0.015-2.932,0.015c-10.529,0-19.725-0.627-24.656-1.574c-1.999-0.38-3.332-0.817-3.776-1.283"/>
		<polyline fill="none" stroke="#231F20" stroke-width="3" stroke-miterlimit="10" points="190.887,547.268 191.02,547.589 
			198.617,568.588 		"/>
		<path fill="none" stroke="#231F20" stroke-width="3" stroke-miterlimit="10" d="M194.796,548.872c0,0,10.44-2.319,27.233-1.925"/>
		<path fill="none" stroke="#231F20" stroke-width="3" stroke-miterlimit="10" d="M378.808,545.503c0,1.342-0.488,2.64-1.51,3.908
			c-0.889,1.226-2.267,2.406-4.043,3.544c-0.4,0.263-0.845,0.539-1.333,0.802c-1.288,0.729-2.71,1.444-4.354,2.129
			c-0.667,0.292-1.377,0.584-2.177,0.875c-8.441,3.224-20.392,5.775-34.475,7.307c-7.73,0.846-16.082,1.385-24.878,1.531
			c-1.866,0.044-3.732,0.058-5.598,0.058c-2.043,0-4.087-0.014-6.086-0.072c-16.571-0.321-31.72-1.969-43.804-4.535
			c-2.488-0.54-4.842-1.094-7.02-1.692c-9.151-2.479-15.86-5.541-19.192-8.953c-1.11-1.123-1.821-2.275-2.132-3.456
			c-0.133-0.467-0.222-0.934-0.222-1.4"/>
		<polyline fill="none" stroke="#231F20" stroke-width="3" stroke-miterlimit="10" points="258.37,545.503 250.551,561.049 
			250.551,561.063 		"/>
		<polyline fill="none" stroke="#231F20" stroke-width="3" stroke-miterlimit="10" points="276.717,547.808 263.745,534.741 
			258.37,545.488 		"/>
		<polyline fill="none" stroke="#231F20" stroke-width="3" stroke-miterlimit="10" points="294.354,565.584 284.359,555.521 
			276.717,547.822 		"/>
		
			<line fill="none" stroke="#231F20" stroke-width="3" stroke-miterlimit="10" x1="358.194" y1="545.503" x2="362.992" y2="555.58"/>
		<polyline fill="none" stroke="#231F20" stroke-width="3" stroke-miterlimit="10" points="330.917,564.053 343.179,547.822 
			353.085,534.741 358.194,545.488 		"/>
		<path fill="none" stroke="#231F20" stroke-width="3" stroke-miterlimit="10" d="M374.987,565.599
			c-0.577,1.517-1.288,2.975-2.044,4.39c-18.214,33.657-72.502,35.437-72.502,35.437c-44.115,0-63.396-18.608-71.836-35.087
			c-0.667-1.21-1.2-2.421-1.733-3.588c-2.799-6.504-3.998-12.396-4.487-16.318c-0.222-1.458-0.311-2.639-0.355-3.484
			c-0.044-0.773-0.044-1.255-0.044-1.4c0-0.029,0-0.044,0-0.044v-1.385v-23.013l20.347,13.636l16.038,10.747v0.015"/>
		<path fill="none" stroke="#231F20" stroke-width="3" stroke-miterlimit="10" d="M358.194,545.503v-0.015l8.264-17.587l3.198-6.796
			l9.151,24.397c0,1.298-0.044,2.566-0.133,3.807c-0.045,1.021-0.134,2.026-0.267,3.004c-0.089,0.715-0.178,1.414-0.312,2.114
			c-0.577,4.025-1.644,7.744-3.065,11.156"/>
		<polyline fill="none" stroke="#231F20" stroke-width="3" stroke-miterlimit="10" points="306.039,565.584 313.502,550.141 
			323.187,530.104 328.385,534.741 343.09,547.822 		"/>
		<polyline fill="none" stroke="#231F20" stroke-width="3" stroke-miterlimit="10" points="284.359,555.58 284.359,555.521 
			289.957,534.741 300.396,541.58 313.458,550.141 		"/>
		<polyline fill="none" stroke="#231F20" stroke-width="3" stroke-miterlimit="10" points="242.332,534.741 284.359,516.104 
			282.226,524.897 276.717,547.808 276.717,547.822 		"/>
		<polyline fill="none" stroke="#231F20" stroke-width="3" stroke-miterlimit="10" points="282.315,524.897 300.441,522.695 
			313.458,521.105 300.441,541.58 		"/>
		<polyline fill="none" stroke="#231F20" stroke-width="3" stroke-miterlimit="10" points="328.429,534.741 337.937,530.104 
			356.328,521.105 366.413,527.901 		"/>
		<polyline fill="none" stroke="#231F20" stroke-width="3" stroke-miterlimit="10" points="337.937,530.104 313.458,511.102 
			300.441,522.651 		"/>
		<path fill="none" stroke="#231F20" stroke-width="3" stroke-miterlimit="10" d="M389.736,254.486c0,0-2.977-15.4-23.679-9.392
			c0,0-59.886,21.233-41.493,77.698c2.932,8.998,7.863,18.899,15.326,29.749c4.266,6.198,9.33,12.687,15.372,19.512"/>
		<path fill="none" stroke="#231F20" stroke-width="3" stroke-miterlimit="10" d="M285.469,331.644c0,0,26.256-9.129,39.095-8.852
			h0.044"/>
		<path fill="none" stroke="#231F20" stroke-width="3" stroke-miterlimit="10" d="M339.891,352.542c0,0-44.559,16.479-45.536,19.512
			c0,0,17.904,83.21,15.016,95.124"/>
		<path fill="none" stroke="#231F20" stroke-width="3" stroke-miterlimit="10" d="M362.992,357.894c0,0-2.354,5.235-5.864,14.232
			c-7.729,19.833-20.88,57.997-26.211,98.741"/>
		<polygon fill="none" stroke="#FFFFFF" stroke-width="3" stroke-miterlimit="10" points="434.918,500.004 455.842,504.671 
			439.094,522.695 409.64,513.144 		"/>
		<polygon fill="none" stroke="#FFFFFF" stroke-width="3" stroke-miterlimit="10" points="464.461,516.104 484.586,521.105 
			464.461,544.104 443.848,534.741 		"/>
		<path fill="none" stroke="#231F20" stroke-width="3" stroke-miterlimit="10" d="M520.304,536.797c0,0.715-0.666,1.371-1.821,1.954
			c-2.576,1.269-7.553,2.144-13.283,2.144c-8.264,0-15.016-1.837-15.016-4.098"/>
		<path fill="none" stroke="#231F20" stroke-width="3" stroke-miterlimit="10" d="M484.586,492.086
			c0-3.675,9.196-6.665,20.613-6.665c7.863,0,14.66,1.415,18.126,3.485c1.599,0.948,2.487,2.027,2.487,3.18"/>
		<path fill="none" stroke="#231F20" stroke-width="3" stroke-miterlimit="10" d="M525.724,492.771
			c-0.311,0.962-1.244,1.852-2.71,2.653c-3.554,1.983-10.173,3.325-17.814,3.325s-14.261-1.342-17.814-3.325
			c-1.467-0.802-2.399-1.691-2.71-2.653"/>
		<polyline fill="none" stroke="#231F20" stroke-width="3" stroke-miterlimit="10" points="484.586,492.086 484.675,492.771 
			485.252,497.263 490.184,536.797 		"/>
		<polyline fill="none" stroke="#231F20" stroke-width="3" stroke-miterlimit="10" points="525.812,492.086 525.724,492.771 
			524.347,503.956 520.304,536.797 		"/>
		<path fill="none" stroke="#231F20" stroke-width="3" stroke-miterlimit="10" d="M487.34,495.454c0,0,0-0.015,0.045-0.029
			c0.933-0.568,15.237-8.997,35.629,0c0,0.015,0,0.015,0.045,0.029"/>
		<path fill="none" stroke="#231F20" stroke-width="3" stroke-miterlimit="10" d="M101.325,522.389
			c0,2.261-6.708,4.099-15.016,4.099c-8.352,0-15.016-1.838-15.016-4.099"/>
		<path fill="none" stroke="#231F20" stroke-width="3" stroke-miterlimit="10" d="M65.695,477.678c0-0.233,0.044-0.452,0.089-0.686
			c1.066-3.354,9.818-5.979,20.524-5.979c11.417,0,20.614,2.989,20.614,6.664"/>
		<path fill="none" stroke="#231F20" stroke-width="3" stroke-miterlimit="10" d="M106.833,478.363
			c-0.311,0.962-1.244,1.852-2.71,2.654c-3.554,1.983-10.174,3.324-17.815,3.324s-14.261-1.341-17.814-3.324
			c-1.466-0.803-2.399-1.692-2.71-2.654"/>
		<polyline fill="none" stroke="#231F20" stroke-width="3" stroke-miterlimit="10" points="65.695,477.678 65.784,478.363 
			69.427,507.383 71.293,522.389 		"/>
		<polyline fill="none" stroke="#231F20" stroke-width="3" stroke-miterlimit="10" points="106.922,477.678 106.833,478.363 
			104.079,500.471 101.325,522.389 		"/>
		<path fill="none" stroke="#231F20" stroke-width="3" stroke-miterlimit="10" d="M68.45,481.047c0,0,0-0.015,0.044-0.029
			c0.933-0.569,15.238-8.998,35.629,0c0,0.015,0,0.015,0.044,0.029"/>
		<path fill="none" stroke="#231F20" stroke-width="3" stroke-miterlimit="10" d="M141.219,394.847c0,0,0,0.015,0,0.044
			c0.222,0.729,3.154,10.412,7.863,23.391c1.911,5.279,4.132,11.098,6.575,17.092c3.776,9.304,8.13,19.001,12.794,27.663
			c4.976,9.202,10.307,17.223,15.727,22.371c2.221,2.114,4.442,3.732,6.664,4.754c8.13,3.689,14.527,0.787,17.548,9.857
			c0,0,1.999,14.088-21.946,11.083c0,0-17.459-6.708-23.057-12.366l-7.686-8.574l-4.265-4.754"/>
		<path fill="none" stroke="#231F20" stroke-width="3" stroke-miterlimit="10" d="M141.219,421.519c0,0,9.507,46.097,9.552,63.902
			c0,2.684-0.178,4.711-0.667,5.862"/>
		<path fill="none" stroke="#231F20" stroke-width="3" stroke-miterlimit="10" d="M98.082,401.409
			c-0.044-0.015-0.089-0.044-0.178-0.059c-1.866-0.554-17.104-5.542-24.745-22.312c-3.243-7.044-5.109-16.144-4.087-27.868
			c1.2-13.635,6.264-30.799,17.682-52.338c0,0-0.8-18.958-21.058-9.027c0,0-23.679,43.02-23.679,82.598
			c0,23.405,8.263,45.615,34.608,57.02c0,0-7.775,24.791-12.839,47.525c-3.021,13.285-5.064,25.87-4.131,32.375
			c0.044,0.189,0.044,0.364,0.089,0.539"/>
		<path fill="none" stroke="#231F20" stroke-width="3" stroke-miterlimit="10" d="M221.985,353.183c0,0-47.18,10.251-66.283,82.19"
			/>
		<path fill="none" stroke="#231F20" stroke-width="3" stroke-miterlimit="10" d="M198.617,483.307
			c-2.977-9.771,9.862-79.142,9.862-79.142s-36.918,29.837-39.983,58.871"/>
		<path fill="none" stroke="#231F20" stroke-width="3" stroke-miterlimit="10" d="M424.078,333.438c0,0,0.044,0,0.089-0.015
			c1.466-0.277,19.458-5.352,24.212-89.729c0,0,11.062-33.38,25.989,0c0,0,4.753,34.27-3.243,73.513
			c-3.776,18.185-10.263,37.435-21.236,54.847"/>
		<path fill="none" stroke="#231F20" stroke-width="3" stroke-miterlimit="10" d="M457.086,453.179
			c0.134,9.931-0.178,19.133-1.288,26.424c-0.711,4.856-1.777,8.866-3.243,11.681"/>
		<path fill="none" stroke="#231F20" stroke-width="3" stroke-miterlimit="10" d="M449.889,372.054c0,0,3.421,23.172,5.554,49.465
			c0.844,10.471,1.511,21.438,1.644,31.646"/>
		<path fill="none" stroke="#231F20" stroke-width="3" stroke-miterlimit="10" d="M474.945,433.36
			c-4.087,16.945-7.997,34.139-10.529,47.788c-0.844,4.491-1.51,8.604-1.999,12.206"/>
		<path fill="none" stroke="#231F20" stroke-width="3" stroke-miterlimit="10" d="M492.76,364.602c0,0,0,0.029,0,0.073
			c-0.488,1.75-9.552,34.736-17.814,68.671"/>
		<path fill="none" stroke="#231F20" stroke-width="3" stroke-miterlimit="10" d="M547.804,364.602c0,0,0,0,0.044,0.015v0.015
			c0.978,1.006,25.989,27.095,25.989,62.765c0,12.104-2.888,25.331-10.617,39.054c-3.065,5.556-6.976,11.185-11.817,16.857
			c0,0-13.595,9.392-18.792,5.177c-2.444-1.997-3.021-7.043,0.666-17.616c0,0,35.141-46.68,9.151-68.772"/>
		<path fill="none" stroke="#231F20" stroke-width="3" stroke-miterlimit="10" d="M492.76,364.602c0,0,0,0.015-0.044,0.029v0.015
			c-1.022,1.342-29.365,38.645-37.229,56.873"/>
		<polygon fill="none" stroke="#FFFFFF" stroke-width="3" stroke-miterlimit="10" points="127.491,519.502 151.348,538.839 
			177.559,527.901 145.973,513.144 		"/>
		<polygon fill="none" stroke="#FFFFFF" stroke-width="3" stroke-miterlimit="10" points="265.522,485.421 285.469,478.946 
			311.281,489.577 289.246,501.652 		"/>
		<polygon fill="none" stroke="#FFFFFF" stroke-width="3" stroke-miterlimit="10" points="351.886,481.163 372.766,486.15 
			352.952,509.862 327.852,501.652 		"/>
		<path fill="none" stroke="#231F20" stroke-width="3" stroke-miterlimit="10" d="M305.328,51.505c0,0,11.817,57.588-20.036,78.588
			c0,0-38.917,16.77-38.695-14c0,0-33.186,8.706-31.187-12.643"/>
		<path fill="none" stroke="#231F20" stroke-width="3" stroke-miterlimit="10" d="M315.457,51.505c0,0-11.817,57.588,20.036,78.588
			c0,0,38.917,16.77,38.694-14c0,0,33.187,8.706,31.187-12.643"/>
		<path fill="none" stroke="#FFFFFF" stroke-width="3" stroke-miterlimit="10" d="M415.237,175.067c0,5.425-4.398,9.844-9.774,9.844
			c-5.464,0-9.862-4.419-9.862-9.844c0-5.439,4.398-9.843,9.862-9.843c2.577,0,4.977,1.021,6.709,2.698
			C414.037,169.7,415.237,172.252,415.237,175.067z"/>
		<path fill="none" stroke="#FFFFFF" stroke-width="3" stroke-miterlimit="10" d="M451.577,187.973c0,5.439-4.398,9.844-9.862,9.844
			c-5.465,0-9.818-4.404-9.818-9.844s4.354-9.843,9.818-9.843c1.511,0,2.932,0.335,4.176,0.933
			C449.268,180.638,451.577,184.036,451.577,187.973z"/>
		<path fill="none" stroke="#FFFFFF" stroke-width="3" stroke-miterlimit="10" d="M343.179,184.911c0,5.439-4.398,9.843-9.863,9.843
			c-5.464,0-9.862-4.404-9.862-9.843s4.398-9.844,9.862-9.844C338.78,175.067,343.179,179.471,343.179,184.911z"/>
		<path fill="none" stroke="#FFFFFF" stroke-width="3" stroke-miterlimit="10" d="M494.448,194.754c0,5.439-4.398,9.843-9.862,9.843
			c-5.465,0-9.863-4.404-9.863-9.843c0-2.654,1.022-5.046,2.755-6.81c1.777-1.881,4.31-3.033,7.108-3.033
			C490.05,184.911,494.448,189.314,494.448,194.754z"/>
		<path fill="none" stroke="#FFFFFF" stroke-width="3" stroke-miterlimit="10" d="M105.012,197.802c0,5.439-4.398,9.843-9.818,9.843
			c-5.464,0-9.863-4.404-9.863-9.843s4.398-9.843,9.863-9.843c2.354,0,4.531,0.831,6.22,2.246
			C103.635,192.012,105.012,194.739,105.012,197.802z"/>
		<path fill="none" stroke="#FFFFFF" stroke-width="3" stroke-miterlimit="10" d="M194.085,187.973c0,5.439-4.398,9.844-9.907,9.844
			c-5.375,0-9.774-4.404-9.774-9.844s4.398-9.843,9.774-9.843C189.688,178.129,194.085,182.533,194.085,187.973z"/>
		<path fill="none" stroke="#FFFFFF" stroke-width="3" stroke-miterlimit="10" d="M229.227,175.067c0,5.425-4.398,9.844-9.863,9.844
			c-5.42,0-9.818-4.419-9.818-9.844c0-5.439,4.398-9.843,9.818-9.843C224.828,165.224,229.227,169.627,229.227,175.067z"/>
		<path fill="none" stroke="#FFFFFF" stroke-width="3" stroke-miterlimit="10" d="M151.082,197.802c0,5.439-4.398,9.843-9.907,9.843
			c-5.42,0-9.773-4.404-9.773-9.843s4.354-9.843,9.773-9.843C146.683,187.958,151.082,192.362,151.082,197.802z"/>
		<path fill="none" stroke="#FFFFFF" stroke-width="3" stroke-miterlimit="10" d="M307.727,184.911c0,5.439-4.398,9.843-9.818,9.843
			c-5.464,0-9.863-4.404-9.863-9.843c0-3.194,1.511-6.038,3.91-7.831c1.644-1.269,3.732-2.013,5.953-2.013
			C303.329,175.067,307.727,179.471,307.727,184.911z"/>
		<path fill="none" stroke="#FFFFFF" stroke-width="3" stroke-miterlimit="10" d="M267.655,184.911c0,5.439-4.398,9.843-9.863,9.843
			s-9.862-4.404-9.862-9.843s4.398-9.844,9.862-9.844S267.655,179.471,267.655,184.911z"/>
		<path fill="none" stroke="#FFFFFF" stroke-width="3" stroke-miterlimit="10" d="M535.675,194.754c0,5.439-4.397,9.843-9.773,9.843
			c-5.464,0-9.906-4.404-9.906-9.843c0-2.188,0.71-4.214,1.954-5.848c1.777-2.421,4.709-3.996,7.952-3.996
			C531.277,184.911,535.675,189.314,535.675,194.754z"/>
		<path fill="none" stroke="#FFFFFF" stroke-width="3" stroke-miterlimit="10" d="M257.792,160.79
			c-11.329-2.727-24.523-7.612-39.627-15.706c0,0-18.837,10.879-44.115,20.139c-10.529,3.864-22.168,7.437-34.074,9.843
			c-9.952,2.027-20.125,3.223-29.898,3.033c-7.464-0.117-14.75-1.05-21.591-3.033h-0.044"/>
		<path fill="none" stroke="#FFFFFF" stroke-width="3" stroke-miterlimit="10" d="M311.281,156.43c0,0-0.444,0.35-1.377,0.904
			c-2.754,1.619-9.596,4.958-20.658,6.096c-8.13,0.846-18.614,0.481-31.454-2.625"/>
		<path fill="none" stroke="#FFFFFF" stroke-width="3" stroke-miterlimit="10" d="M370.101,158.472
			c9.285-2.902,19.636-7.204,31.098-13.387c0,0,18.748,10.879,43.938,20.139c8.663,3.179,18.037,6.168,27.677,8.458
			c19.459,4.637,39.939,6.489,57.442,1.415c0.045-0.015,0.045-0.015,0.089-0.029"/>
		<path fill="none" stroke="#FFFFFF" stroke-width="3" stroke-miterlimit="10" d="M308.526,156.43c0,0,0.444,0.35,1.377,0.904
			c5.198,3.077,24.79,12.264,60.197,1.152"/>
		<path fill="none" stroke="#FFFFFF" stroke-width="3" stroke-miterlimit="10" d="M379.919,179.062c0,5.439-4.443,9.844-9.818,9.844
			c-5.465,0-9.862-4.404-9.862-9.844s4.397-9.843,9.862-9.843C375.476,169.219,379.919,173.623,379.919,179.062z"/>
		<polyline fill="none" stroke="#FFFFFF" stroke-width="3" stroke-miterlimit="10" points="257.792,160.79 257.792,160.805 
			257.792,175.067 		"/>
		<polyline fill="none" stroke="#FFFFFF" stroke-width="3" stroke-miterlimit="10" points="289.246,163.415 289.246,163.43 
			291.956,177.08 291.956,177.138 		"/>
		
			<line fill="none" stroke="#FFFFFF" stroke-width="3" stroke-miterlimit="10" x1="330.917" y1="163.488" x2="333.315" y2="175.067"/>
		<polyline fill="none" stroke="#FFFFFF" stroke-width="3" stroke-miterlimit="10" points="370.101,158.472 370.101,158.486 
			370.101,169.219 		"/>
		<path fill="none" stroke="#FFFFFF" stroke-width="3" stroke-miterlimit="10" d="M415.237,152.449c0,0,3.688,18.185-3.065,15.473"
			/>
		<path fill="none" stroke="#FFFFFF" stroke-width="3" stroke-miterlimit="10" d="M445.136,165.224c0,0,8.93,13.795,0.755,13.839
			h-0.044"/>
		<path fill="none" stroke="#FFFFFF" stroke-width="3" stroke-miterlimit="10" d="M472.812,173.682c0,0-2.266,12.104,4.665,14.262
			l0.044,0.015"/>
		<path fill="none" stroke="#FFFFFF" stroke-width="3" stroke-miterlimit="10" d="M515.995,179.062c0,0-1.422,4.667,1.954,9.844"/>
		<path fill="none" stroke="#FFFFFF" stroke-width="3" stroke-miterlimit="10" d="M184.179,178.129c0,0-12.484-5.79-10.129-12.906"
			/>
		<path fill="none" stroke="#FFFFFF" stroke-width="3" stroke-miterlimit="10" d="M219.364,165.224c0,0,7.597-15.137-1.199-20.139"
			/>
		<path fill="none" stroke="#FFFFFF" stroke-width="3" stroke-miterlimit="10" d="M139.975,175.067c0,0-4.754,10.777,1.199,12.892"
			/>
		<path fill="none" stroke="#FFFFFF" stroke-width="3" stroke-miterlimit="10" d="M110.077,178.085c0,0,0,0,0,0.015
			c0.178,0.54,3.332,12.177-8.663,12.104"/>
		<path fill="none" stroke="#231F20" stroke-width="3" stroke-miterlimit="10" d="M416.925,495.557
			c0,2.464-5.953,4.447-13.238,4.447c-7.375,0-13.328-1.983-13.328-4.447"/>
		<path fill="none" stroke="#231F20" stroke-width="3" stroke-miterlimit="10" d="M385.383,447.083
			c0-3.981,8.175-7.219,18.304-7.219c10.04,0,18.215,3.237,18.215,7.219"/>
		<path fill="none" stroke="#231F20" stroke-width="3" stroke-miterlimit="10" d="M421.812,447.812
			c-0.267,1.051-1.111,2.042-2.444,2.902c-3.109,2.158-8.974,3.602-15.682,3.602c-6.753,0-12.661-1.443-15.771-3.602
			c-1.333-0.86-2.177-1.852-2.443-2.902"/>
		<polyline fill="none" stroke="#231F20" stroke-width="3" stroke-miterlimit="10" points="385.383,447.083 385.472,447.812 
			388.848,480.77 390.358,495.557 		"/>
		<polyline fill="none" stroke="#231F20" stroke-width="3" stroke-miterlimit="10" points="421.901,447.083 421.812,447.812 
			417.947,485.742 416.925,495.557 		"/>
		<path fill="none" stroke="#231F20" stroke-width="3" stroke-miterlimit="10" d="M387.871,450.729c0,0,0,0,0.044-0.015
			c0.578-0.467,13.283-9.873,31.453,0c0.045,0,0.045,0.015,0.045,0.015"/>
		<path fill="none" stroke="#231F20" stroke-width="3" stroke-miterlimit="10" d="M253.527,515.798
			c0,2.449-5.953,4.433-13.328,4.433c-7.375,0-13.284-1.983-13.284-4.433"/>
		<path fill="none" stroke="#231F20" stroke-width="3" stroke-miterlimit="10" d="M221.94,467.324c0-3.981,8.219-7.233,18.259-7.233
			c10.084,0,18.214,3.252,18.214,7.233"/>
		<path fill="none" stroke="#231F20" stroke-width="3" stroke-miterlimit="10" d="M258.325,468.053
			c-0.267,1.05-1.111,2.027-2.443,2.902c-3.11,2.144-8.974,3.587-15.682,3.587c-6.708,0-12.573-1.443-15.771-3.587
			c-1.288-0.875-2.132-1.853-2.399-2.902"/>
		<polyline fill="none" stroke="#231F20" stroke-width="3" stroke-miterlimit="10" points="221.94,467.324 222.029,468.053 
			223.229,479.72 226.916,515.798 		"/>
		<polyline fill="none" stroke="#231F20" stroke-width="3" stroke-miterlimit="10" points="258.414,467.324 258.325,468.053 
			257.659,474.703 253.527,515.798 		"/>
		<path fill="none" stroke="#231F20" stroke-width="3" stroke-miterlimit="10" d="M224.428,470.97c0,0,0,0,0-0.015
			c0.622-0.467,13.328-9.873,31.454,0c0.044,0,0.044,0.015,0.044,0.015"/>
		<path fill="none" stroke="#231F20" stroke-width="3" stroke-miterlimit="10" d="M563.22,466.449c0,0,2.354,35.203-0.178,44.113"/>
		<polyline fill="none" stroke="#231F20" stroke-width="3" stroke-miterlimit="10" points="474.945,433.346 474.945,433.36 
			457.086,453.164 457.086,453.179 		"/>
		<polygon fill="none" stroke="#231F20" stroke-width="3" stroke-miterlimit="10" points="66.406,215.447 70.671,255.375 
			106.211,230.817 		"/>
		<polygon fill="none" stroke="#231F20" stroke-width="3" stroke-miterlimit="10" points="198.573,212.385 159.434,221.397 
			188.132,253.728 		"/>
		<polygon fill="none" stroke="#231F20" stroke-width="3" stroke-miterlimit="10" points="305.417,213.405 265.522,208.827 
			281.827,248.886 		"/>
		<polygon fill="none" stroke="#231F20" stroke-width="3" stroke-miterlimit="10" points="429.809,206.187 392.047,192.727 
			398.8,235.411 		"/>
		<polygon fill="none" stroke="#231F20" stroke-width="3" stroke-miterlimit="10" points="548.87,212.793 509.197,219.122 
			535.586,253.333 		"/>
		<path fill="none" stroke="#231F20" stroke-width="3" stroke-miterlimit="10" d="M226.916,566.75c0,0,3.688,1.226,10.085,2.873
			c23.679,6.154,84.542,18.331,134.788-2.64c1.065-0.438,2.132-0.903,3.198-1.385c0.044,0,0.044-0.015,0.044-0.015"/>
		<polygon fill="none" stroke="#231F20" stroke-width="3" stroke-miterlimit="10" points="578.102,513.144 530.033,540.909 
			309.371,668.379 40.55,513.144 40.55,372.403 40.55,202.746 88.485,175.067 213.188,103.042 303.151,51.097 309.371,47.51 
			316.079,51.389 405.996,103.333 530.255,175.096 578.102,202.746 578.102,328.655 578.102,427.396 		"/>
		<polygon fill="none" stroke="#231F20" stroke-width="3" stroke-miterlimit="10" points="599.071,525.175 309.371,692.455 
			19.625,525.175 19.625,190.612 309.371,23.332 599.071,190.612 		"/>
	</g>
</g>
</svg>
