<?xml version="1.0" encoding="utf-8"?>
<!-- Generator: Adobe Illustrator 15.0.2, SVG Export Plug-In . SVG Version: 6.00 Build 0)  -->
<!DOCTYPE svg PUBLIC "-//W3C//DTD SVG 1.1//EN" "http://www.w3.org/Graphics/SVG/1.1/DTD/svg11.dtd">
<svg version="1.1" id="Layer_1" xmlns="http://www.w3.org/2000/svg" xmlns:xlink="http://www.w3.org/1999/xlink" x="0px" y="0px"
	 width="514.5px" height="589.5px" viewBox="0 0 514.5 589.5" enable-background="new 0 0 514.5 589.5" xml:space="preserve">
<g>
	<g id="XMLID_22_">
		<g>
			<polygon fill="#FFFFFF" points="266.831,260.83 266.831,272.766 256.498,278.717 246.165,272.766 246.165,260.83 
				256.498,254.878 			"/>
			<path fill="#FFFFFF" d="M272.357,216.881v18.345l-15.86,9.156l-15.892-9.156v-18.345l15.892-9.156L272.357,216.881z
				 M266.831,232.021v-11.936l-10.333-5.952l-10.333,5.952v11.936l10.333,5.951L266.831,232.021z"/>
			<path fill="#FFFFFF" d="M270.723,117.866c9.94,9.385-10.366,0.098-20.144,3.629C250.579,121.495,259.408,107.14,270.723,117.866z
				"/>
			<path fill="#231F20" d="M508.255,149.094v290.605L256.53,585.508L4.806,439.699V149.094L256.53,3.187L508.255,149.094z
				 M492.951,430.739V158.054L256.759,21.139L20.567,158.054v272.686l236.192,136.816L492.951,430.739z"/>
			<path fill="#F58720" d="M492.951,158.054v272.686L256.759,567.556L20.567,430.739V158.054L256.759,21.139L492.951,158.054z
				 M476.241,223.323l0.262-0.327h-0.262v-23.151v-32.34l-93.555-54.021l-30.182-17.429l-13.473-7.783l-17.494-10.104
				c-0.033,0-0.033-0.033-0.065-0.033l-64.975-37.507l-76.551,44.177l-8.404,4.873l-12.753,7.357l-28.416,16.416l-93.653,54.053
				v32.34v23.151V345v23.707v52.549l187.436,108.237l32.34,18.672l32.374-18.704l187.37-108.205v-52.549V345h0.262l-0.262-0.327
				V223.323z"/>
			<polygon fill="#1B75BB" points="476.503,222.996 476.241,223.323 476.241,222.996 			"/>
			<polygon fill="#1B75BB" points="476.241,344.673 476.503,345 476.241,345 			"/>
			<polygon fill="#929497" points="476.241,368.707 476.241,421.256 288.871,529.461 288.871,435.48 288.871,368.707 
				339.032,405.462 352.505,415.305 382.426,437.246 382.426,368.707 			"/>
			<polygon fill="#004E26" points="476.241,345 476.241,368.707 382.426,368.707 382.426,345 382.72,345 			"/>
			<polygon fill="#5A4A42" points="476.241,344.673 476.241,345 382.72,345 429.611,284.014 			"/>
			<polygon fill="#292117" points="476.241,223.323 476.241,344.673 429.611,284.014 			"/>
			<polygon fill="#F1F1F2" points="476.241,222.996 476.241,223.323 429.611,284.014 382.72,222.996 			"/>
			<polygon fill="#004E26" points="476.241,199.845 476.241,222.996 382.72,222.996 382.426,222.996 382.426,199.845 			"/>
			<polygon fill="#3A2F28" points="476.241,167.504 476.241,199.845 382.426,199.845 382.426,113.909 382.687,113.484 			"/>
			<polygon fill="#C1B49A" points="382.72,222.996 429.611,284.014 382.72,345 382.426,345 382.426,222.996 			"/>
			<polygon fill="#A01623" points="382.687,113.484 382.426,113.909 382.426,199.845 382.426,222.996 382.426,345 382.426,368.707 
				382.426,437.246 352.505,415.305 352.505,96.055 			"/>
			<polygon fill="#F9EC31" points="352.505,96.055 352.505,415.305 339.032,405.462 339.032,405.43 339.032,329.468 
				339.032,180.682 339.032,155.34 339.032,134.085 339.032,88.272 			"/>
			<path fill="#380053" d="M339.032,405.43v0.032l-50.161-36.755L256.53,345c1.537-0.327,52.68-10.987,61.509-87.865h0.033
				c0.261,28.939,4.087,65.171,20.96,72.333V405.43z"/>
			<path fill="#52217C" d="M339.032,180.682v148.786c-16.873-7.162-20.699-43.394-20.96-72.333
				c-0.196-20.667,1.405-37.605,1.405-37.605c-19.555-9.81-5.134-20.045-5.134-20.045c0-10.627-15.401-15.99-18.639-17.004
				C300.545,183.821,334.618,192.814,339.032,180.682z"/>
			<path fill="#9E1F63" d="M268.499,157.269c0.948,1.504,24.459,37.18,70.533-1.929v25.342c-4.414,12.132-38.487,3.139-43.327,1.799
				c-0.164-0.033-0.262-0.065-0.359-0.098c-0.164-0.033-0.229-0.065-0.229-0.065c0,12.589-38.586,17.167-38.586,17.167
				c-19.031,0-32.275-15.533-32.275-15.533c3.826-17.429,13.636-14.715,13.636-14.715c0.916-3.466,2.419-5.919,4.218-7.619
				c5.461-5.199,13.472-3.499,14.355-3.303c-9.712-6.507-30.019-2.714-30.019-2.714c-1.7-0.294-3.139-0.654-4.382-1.046h-0.033
				c-9.581-2.878-7.03-7.227-7.03-7.227c33.779-6.638,41.496-0.556,41.496-0.556c9.875,2.616,2.649-4.774,2.649-4.774
				c-23.969-12.001-52.876,4.774-52.876,4.774c-7.619-23.021,21.811-23.871,21.811-23.871c0.359-5.068,2.027-9.123,4.087-12.23
				h0.033c3.826-5.918,8.96-8.469,8.96-8.469c-12.524-17.985-4.905-27.86-4.905-27.86c15.271,25.539,29.986,21.713,29.986,21.713
				c-4.382-9.385,4.35-21.713,4.35-21.713l15.107,22.694l1.242,1.864c0,0,10.366-2.191,24.525,15.009c0,0-6.54-1.929-9.255,0
				c0,0,17.266,12.524,25.049,2.453c0,0,1.373,8.469-10.693,10.856c0,0,11.511,1.929,15.337,7.685c0,0-11.184,1.472-18.803,4.545
				s1.635,5.82,12.523,4.708c0,0-0.522,5.461-15.794,7.652c0,0-0.588,3.728,7.75,5.625c1.733,0.393,3.826,0.719,6.409,0.916
				C323.99,158.348,300.807,176.693,268.499,157.269z M250.579,121.495c9.777-3.531,30.084,5.755,20.144-3.629
				C259.408,107.14,250.579,121.495,250.579,121.495z"/>
			<path fill="#130843" d="M339.032,134.085v21.255c-46.074,39.109-69.585,3.434-70.533,1.929
				c32.308,19.424,55.491,1.079,55.491,1.079c-2.583-0.196-4.676-0.523-6.409-0.916
				C317.581,157.433,328.144,159.035,339.032,134.085z"/>
			<path fill="#40496F" d="M339.032,88.272v45.813c-10.889,24.95-21.451,23.348-21.451,23.348c-8.338-1.896-7.75-5.625-7.75-5.625
				c15.271-2.191,15.794-7.652,15.794-7.652c-10.889,1.112-20.143-1.635-12.523-4.708s18.803-4.545,18.803-4.545
				c-3.826-5.755-15.337-7.685-15.337-7.685c12.066-2.387,10.693-10.856,10.693-10.856c-7.783,10.072-25.049-2.453-25.049-2.453
				c2.715-1.929,9.255,0,9.255,0c-14.159-17.2-24.525-15.009-24.525-15.009l-1.242-1.864c0,0,14.388-28.122,35.773-18.9
				c0.032,0,0.032,0.033,0.065,0.033L339.032,88.272z"/>
			<path fill="#231F20" d="M256.498,40.628l64.975,37.507c-21.386-9.222-35.773,18.9-35.773,18.9l-15.107-22.694
				c0,0-8.731,12.328-4.35,21.713c0,0-14.715,3.826-29.986-21.713c0,0-7.619,9.875,4.905,27.86c0,0-5.134,2.551-8.96,8.469h-0.033
				c-51.47,11.74-52.222-25.866-52.222-25.866L256.498,40.628z"/>
			<path fill="#F9EC31" d="M319.478,219.53c0,0-1.602,16.938-1.405,37.605h-0.033c-8.829,76.878-59.972,87.538-61.509,87.865h-0.033
				c0,0-59.808-6.082-67.198-122.004c3.303-18.966,6.769-31.229,6.769-31.229c-1.962,14.323,1.341,29.79,1.341,29.79
				c15.565,105.033,59.089,107.911,59.089,107.911C294.724,329.468,319.478,219.53,319.478,219.53z"/>
			<path fill="#56217C" d="M314.344,199.485c0,0-14.421,10.235,5.134,20.045c0,0-24.754,109.938-62.98,109.938
				c0,0-43.523-2.878-59.089-107.911c0,0-3.303-15.467-1.341-29.79c1.668-12.328,7.26-23.773,22.204-23.773
				c0,0,9.287-8.567,23.838-6.376c-1.799,1.7-3.303,4.153-4.218,7.619c0,0-9.81-2.714-13.636,14.715
				c0,0,13.244,15.533,32.275,15.533c0,0,38.586-4.578,38.586-17.167c0,0,0.065,0.033,0.229,0.065
				c0.098,0.033,0.195,0.065,0.359,0.098C298.942,183.495,314.344,188.857,314.344,199.485z M272.357,275.97v-18.345l-15.86-9.156
				l-15.892,9.156v18.345l15.892,9.156L272.357,275.97z M272.357,235.226v-18.345l-15.86-9.156l-15.892,9.156v18.345l15.892,9.156
				L272.357,235.226z"/>
			<path fill="#58595B" d="M280.99,442.315c0.262-2.322,0.393-4.578,0.393-6.835h7.488v93.98l-32.374,18.704l-32.34-18.672v-95.975
				h6.736c0,3.009,0.229,5.951,0.621,8.797c1.57,10.823,5.755,20.339,10.301,27.827c6.965,11.576,14.715,18.443,14.715,18.443
				c7.063-7.063,12.36-14.127,16.22-20.994v-0.032C277.589,458.828,280.107,450.359,280.99,442.315z"/>
			<path fill="#58595B" d="M288.871,368.707v66.773h-7.488c0-13.178-4.121-24.885-9.025-34.139
				c-7.096-13.473-15.827-21.745-15.827-21.745c-8.796,8.796-14.911,17.462-18.966,25.833c-4.774,9.875-6.671,19.325-6.671,28.089
				h-6.736v-64.812h0.033H288.871z"/>
			<polygon fill="#004E26" points="288.871,368.707 224.19,368.707 256.498,345 256.53,345 			"/>
			<path fill="#007DC4" d="M281.383,435.48c0,2.257-0.131,4.513-0.393,6.835l-10.366-5.069c-0.131-5.918-1.733-11.248-3.793-15.761
				l5.526-20.144C277.262,410.596,281.383,422.303,281.383,435.48z"/>
			<path fill="#00B7EB" d="M270.624,437.246l10.366,5.069c-0.883,8.044-3.401,16.513-8.24,25.244l-5.887-13.669
				C269.676,448.07,270.723,442.445,270.624,437.246z"/>
			<path fill="#007DC4" d="M272.75,467.56v0.032c-3.859,6.867-9.156,13.931-16.22,20.994l0.229-20.994
				c4.643-4.644,7.914-9.254,10.104-13.701L272.75,467.56z"/>
			<path fill="#231F20" d="M272.357,257.625v18.345l-15.86,9.156l-15.892-9.156v-18.345l15.892-9.156L272.357,257.625z
				 M266.831,272.766V260.83l-10.333-5.952l-10.333,5.952v11.936l10.333,5.951L266.831,272.766z"/>
			<path fill="#00B7EB" d="M272.357,401.342l-5.526,20.144c-4.12-8.96-10.072-14.617-10.072-14.617l-0.229-27.271
				C256.53,379.597,265.262,387.869,272.357,401.342z"/>
			<path fill="#A3D3F1" d="M266.863,453.891c-2.19,4.447-5.461,9.058-10.104,13.701c0,0-4.97-4.414-9.025-11.706
				c-2.812-5.003-5.199-11.38-5.265-18.64c-0.033-4.904,0.948-10.202,3.63-15.761c2.224-4.709,5.657-9.614,10.66-14.617
				c0,0,5.952,5.657,10.072,14.617c2.06,4.513,3.662,9.843,3.793,15.761C270.723,442.445,269.676,448.07,266.863,453.891z"/>
			<polygon fill="#231F20" points="266.831,220.086 266.831,232.021 256.498,237.973 246.165,232.021 246.165,220.086 
				256.498,214.134 			"/>
			<path fill="#262261" d="M259.146,141.998c0,0,7.227,7.39-2.649,4.774c0,0-7.717-6.082-41.496,0.556c0,0-2.551,4.349,7.03,7.227
				c-43.622,19.685-50.489-11.87-50.489-11.87V89.678l8.404-4.873c0,0,0.752,37.605,52.222,25.866
				c-2.06,3.107-3.728,7.162-4.087,12.23c0,0-29.43,0.85-21.811,23.871C206.271,146.772,235.177,129.997,259.146,141.998z"/>
			<path fill="#007DC4" d="M256.53,379.597l0.229,27.271c-5.003,5.003-8.437,9.908-10.66,14.617h-0.033l-8.502-16.056
				C241.619,397.059,247.734,388.393,256.53,379.597z"/>
			<path fill="#00B7EB" d="M256.759,467.592l-0.229,20.994c0,0-7.75-6.867-14.715-18.443l5.918-14.257
				C251.789,463.178,256.759,467.592,256.759,467.592z"/>
			<path fill="#380053" d="M256.498,345l-32.308,23.707h-0.033l-19.358,14.192c-29.233-47.742-22.661-119.257-15.5-159.903
				C196.689,338.918,256.498,345,256.498,345z"/>
			<path fill="#40496F" d="M256.465,158.315c-0.883-0.196-8.894-1.896-14.355,3.303c-14.552-2.191-23.838,6.376-23.838,6.376
				c-14.944,0-20.536,11.445-22.204,23.773c0,0-3.466,12.263-6.769,31.229c-7.162,40.646-13.734,112.161,15.5,159.903
				l-33.256,24.361V142.685c0,0,6.867,31.555,50.489,11.87h0.033c1.243,0.392,2.682,0.752,4.382,1.046
				C226.446,155.602,246.753,151.808,256.465,158.315z"/>
			<path fill="#007DC4" d="M247.734,455.886l-5.918,14.257c-4.545-7.488-8.731-17.004-10.301-27.827h0.033l10.922-5.069
				C242.535,444.506,244.922,450.883,247.734,455.886z"/>
			<path fill="#00B7EB" d="M246.066,421.485h0.033c-2.682,5.559-3.663,10.856-3.63,15.761l-10.922,5.069h-0.033
				c-0.392-2.846-0.621-5.788-0.621-8.797c0-8.764,1.896-18.214,6.671-28.089L246.066,421.485z"/>
			<polygon fill="#929497" points="224.157,433.519 224.157,529.493 36.721,421.256 36.721,368.707 130.635,368.707 
				130.635,437.246 158.79,416.613 171.543,407.261 204.799,382.899 224.157,368.707 			"/>
			<polygon fill="#F9EC31" points="171.543,142.685 171.543,407.261 158.79,416.613 158.79,97.036 171.543,89.678 			"/>
			<polygon fill="#A01623" points="158.79,97.036 158.79,416.613 130.635,437.246 130.635,368.707 130.635,345 130.897,345 
				130.635,344.673 130.635,223.323 130.897,222.996 130.635,222.996 130.635,199.845 130.635,113.909 130.374,113.451 			"/>
			<polygon fill="#A01623" points="130.897,222.996 130.635,223.323 130.635,222.996 			"/>
			<polygon fill="#A01623" points="130.635,344.673 130.897,345 130.635,345 			"/>
			<polygon fill="#004E26" points="130.635,345 130.635,368.707 36.721,368.707 36.721,345 37.015,345 			"/>
			<polygon fill="#5A4A42" points="130.635,344.673 130.635,345 37.015,345 83.973,284.014 			"/>
			<polygon fill="#C1B49A" points="130.635,223.323 130.635,344.673 83.973,284.014 			"/>
			<polygon fill="#F1F1F2" points="130.635,222.996 130.635,223.323 83.973,284.014 37.015,222.996 			"/>
			<polygon fill="#004E26" points="130.635,199.845 130.635,222.996 37.015,222.996 36.721,222.996 36.721,199.845 			"/>
			<polygon fill="#3A2F28" points="130.635,113.909 130.635,199.845 36.721,199.845 36.721,167.504 130.374,113.451 			"/>
			<polygon fill="#292117" points="83.973,284.014 37.015,345 36.721,345 36.721,222.996 37.015,222.996 			"/>
		</g>
		<g>
			<polygon fill="none" stroke="#231F20" stroke-width="2.4525" stroke-miterlimit="10" points="508.255,439.699 256.53,585.508 
				4.806,439.699 4.806,149.094 256.53,3.187 508.255,149.094 			"/>
			<polyline fill="none" stroke="#231F20" stroke-width="2.4525" stroke-miterlimit="10" points="321.538,78.168 339.032,88.272 
				352.505,96.055 382.687,113.484 476.241,167.504 476.241,199.845 476.241,222.996 476.241,223.323 476.241,344.673 476.241,345 
				476.241,368.707 476.241,421.256 288.871,529.461 256.498,548.165 224.157,529.493 36.721,421.256 36.721,368.707 36.721,345 
				36.721,222.996 36.721,199.845 36.721,167.504 130.374,113.451 158.79,97.036 171.543,89.678 179.947,84.806 256.498,40.628 
				321.473,78.135 			"/>
			
				<line fill="none" stroke="#231F20" stroke-width="2.4525" stroke-miterlimit="10" x1="224.19" y1="368.707" x2="256.498" y2="345"/>
			<polyline fill="none" stroke="#231F20" stroke-width="2.4525" stroke-miterlimit="10" points="130.635,113.909 130.635,199.845 
				130.635,222.996 130.635,223.323 130.635,344.673 130.635,345 130.635,368.707 130.635,437.246 158.79,416.613 171.543,407.261 
				204.799,382.899 224.157,368.707 			"/>
			<path fill="none" stroke="#231F20" stroke-width="2.4525" stroke-miterlimit="10" d="M256.498,345h0.033
				c1.537-0.327,52.68-10.987,61.509-87.865"/>
			<polyline fill="none" stroke="#231F20" stroke-width="2.4525" stroke-miterlimit="10" points="382.426,113.909 382.426,199.845 
				382.426,222.996 382.426,345 382.426,368.707 382.426,437.246 352.505,415.305 339.032,405.462 288.871,368.707 256.53,345 			
				"/>
			<polyline fill="none" stroke="#231F20" stroke-width="2.4525" stroke-miterlimit="10" points="171.543,89.678 171.543,142.685 
				171.543,407.261 			"/>
			<polyline fill="none" stroke="#231F20" stroke-width="2.4525" stroke-miterlimit="10" points="339.032,88.272 339.032,134.085 
				339.032,155.34 339.032,180.682 339.032,329.468 339.032,405.43 			"/>
			<path fill="none" stroke="#231F20" stroke-width="2.4525" stroke-miterlimit="10" d="M268.499,157.269
				c0.948,1.504,24.459,37.18,70.533-1.929"/>
			<path fill="none" stroke="#231F20" stroke-width="2.4525" stroke-miterlimit="10" d="M232.202,110.671
				c3.826-5.918,8.96-8.469,8.96-8.469c-12.524-17.985-4.905-27.86-4.905-27.86c15.271,25.539,29.986,21.713,29.986,21.713
				c-4.382-9.385,4.35-21.713,4.35-21.713l15.107,22.694l1.242,1.864c0,0,10.366-2.191,24.525,15.009c0,0-6.54-1.929-9.255,0
				c0,0,17.266,12.524,25.049,2.453c0,0,1.373,8.469-10.693,10.856c0,0,11.511,1.929,15.337,7.685c0,0-11.184,1.472-18.803,4.545
				s1.635,5.82,12.523,4.708c0,0-0.522,5.461-15.794,7.652c0,0-0.588,3.728,7.75,5.625c1.733,0.393,3.826,0.719,6.409,0.916
				c0,0-23.184,18.345-55.491-1.079c0-0.033-0.033-0.033-0.033-0.033"/>
			<path fill="none" stroke="#231F20" stroke-width="2.4525" stroke-miterlimit="10" d="M222.032,154.555
				c-9.581-2.878-7.03-7.227-7.03-7.227c33.779-6.638,41.496-0.556,41.496-0.556c9.875,2.616,2.649-4.774,2.649-4.774
				c-23.969-12.001-52.876,4.774-52.876,4.774c-7.619-23.021,21.811-23.871,21.811-23.871c0.359-5.068,2.027-9.123,4.087-12.23"/>
			<path fill="none" stroke="#231F20" stroke-width="2.4525" stroke-miterlimit="10" d="M256.53,158.348c0,0-0.033,0-0.065-0.033
				c-9.712-6.507-30.019-2.714-30.019-2.714c-1.7-0.294-3.139-0.654-4.382-1.046"/>
			<path fill="none" stroke="#231F20" stroke-width="2.4525" stroke-miterlimit="10" d="M295.116,182.317
				c0,12.589-38.586,17.167-38.586,17.167c-19.031,0-32.275-15.533-32.275-15.533c3.826-17.429,13.636-14.715,13.636-14.715
				c0.916-3.466,2.419-5.919,4.218-7.619c5.461-5.199,13.472-3.499,14.355-3.303"/>
			<path fill="none" stroke="#231F20" stroke-width="2.4525" stroke-miterlimit="10" d="M242.11,161.618
				c-14.552-2.191-23.838,6.376-23.838,6.376c-14.944,0-20.536,11.445-22.204,23.773c-1.962,14.323,1.341,29.79,1.341,29.79
				c15.565,105.033,59.089,107.911,59.089,107.911c38.226,0,62.98-109.938,62.98-109.938c-19.555-9.81-5.134-20.045-5.134-20.045
				c0-10.627-15.401-15.99-18.639-17.004c-0.164-0.033-0.262-0.065-0.359-0.098"/>
			<path fill="none" stroke="#231F20" stroke-width="2.4525" stroke-miterlimit="10" d="M250.579,121.495
				c0,0,8.829-14.355,20.144-3.629C280.663,127.25,260.356,117.964,250.579,121.495z"/>
			<path fill="none" stroke="#231F20" stroke-width="2.4525" stroke-miterlimit="10" d="M317.581,157.433
				c0,0,10.562,1.602,21.451-23.348"/>
			<path fill="none" stroke="#231F20" stroke-width="2.4525" stroke-miterlimit="10" d="M179.947,84.806
				c0,0,0.752,37.605,52.222,25.866h0.033"/>
			<path fill="none" stroke="#231F20" stroke-width="2.4525" stroke-miterlimit="10" d="M285.699,97.036
				c0,0,14.388-28.122,35.773-18.9c0.032,0,0.032,0.033,0.065,0.033"/>
			<path fill="none" stroke="#231F20" stroke-width="2.4525" stroke-miterlimit="10" d="M171.543,142.685
				c0,0,6.867,31.555,50.489,11.87h0.033"/>
			<path fill="none" stroke="#231F20" stroke-width="2.4525" stroke-miterlimit="10" d="M196.068,191.768
				c0,0-3.466,12.263-6.769,31.229c-7.162,40.646-13.734,112.161,15.5,159.903"/>
			<polygon fill="none" stroke="#231F20" stroke-width="2.4525" stroke-miterlimit="10" points="272.357,235.226 256.498,244.382 
				240.605,235.226 240.605,216.881 256.498,207.725 272.357,216.881 			"/>
			<polygon fill="none" stroke="#FFFFFF" stroke-width="1.635" stroke-miterlimit="10" points="272.357,275.97 256.498,285.126 
				240.605,275.97 240.605,257.625 256.498,248.469 272.357,257.625 			"/>
			<polygon fill="none" stroke="#231F20" stroke-width="2.4525" stroke-miterlimit="10" points="266.831,272.766 256.498,278.717 
				246.165,272.766 246.165,260.83 256.498,254.878 266.831,260.83 			"/>
			<path fill="none" stroke="#231F20" stroke-width="2.4525" stroke-miterlimit="10" d="M295.116,182.317
				c0,0,0.065,0.033,0.229,0.065c0.098,0.033,0.195,0.065,0.359,0.098c4.84,1.34,38.913,10.333,43.327-1.799"/>
			<path fill="none" stroke="#231F20" stroke-width="2.4525" stroke-miterlimit="10" d="M319.478,219.53
				c0,0-1.602,16.938-1.405,37.605c0.261,28.939,4.087,65.171,20.96,72.333"/>
			<path fill="none" stroke="#231F20" stroke-width="2.4525" stroke-miterlimit="10" d="M256.498,345
				c0,0-59.808-6.082-67.198-122.004"/>
			
				<line fill="none" stroke="#231F20" stroke-width="2.4525" stroke-miterlimit="10" x1="158.79" y1="97.036" x2="158.79" y2="416.613"/>
			
				<line fill="none" stroke="#231F20" stroke-width="2.4525" stroke-miterlimit="10" x1="352.505" y1="96.055" x2="352.505" y2="415.305"/>
			<path fill="none" stroke="#231F20" stroke-width="2.4525" stroke-miterlimit="10" d="M272.75,467.592
				c-3.859,6.867-9.156,13.931-16.22,20.994c0,0-7.75-6.867-14.715-18.443c-4.545-7.488-8.731-17.004-10.301-27.827
				c-0.392-2.846-0.621-5.788-0.621-8.797c0-8.764,1.896-18.214,6.671-28.089c4.055-8.371,10.169-17.037,18.966-25.833
				c0,0,8.731,8.272,15.827,21.745c4.904,9.254,9.025,20.961,9.025,34.139c0,2.257-0.131,4.513-0.393,6.835
				c-0.883,8.044-3.401,16.513-8.24,25.244"/>
			
				<line fill="none" stroke="#231F20" stroke-width="2.4525" stroke-miterlimit="10" x1="272.75" y1="467.56" x2="272.75" y2="467.592"/>
			
				<line fill="none" stroke="#231F20" stroke-width="2.4525" stroke-miterlimit="10" x1="36.721" y1="199.845" x2="130.635" y2="199.845"/>
			
				<line fill="none" stroke="#231F20" stroke-width="2.4525" stroke-miterlimit="10" x1="382.426" y1="199.845" x2="476.241" y2="199.845"/>
			
				<line fill="none" stroke="#231F20" stroke-width="2.4525" stroke-miterlimit="10" x1="36.721" y1="368.707" x2="130.635" y2="368.707"/>
			
				<line fill="none" stroke="#231F20" stroke-width="2.4525" stroke-miterlimit="10" x1="476.241" y1="368.707" x2="382.426" y2="368.707"/>
			<polyline fill="none" stroke="#231F20" stroke-width="2.4525" stroke-miterlimit="10" points="224.157,529.493 224.157,433.519 
				224.157,368.707 224.19,368.707 288.871,368.707 288.871,435.48 288.871,529.461 			"/>
			<polygon fill="none" stroke="#231F20" stroke-width="2.4525" stroke-miterlimit="10" points="37.015,345 130.635,345 
				130.897,345 130.635,344.673 83.973,284.014 37.015,222.996 130.635,222.996 130.897,222.996 130.635,223.323 83.973,284.014 			
				"/>
			<polygon fill="none" stroke="#231F20" stroke-width="2.4525" stroke-miterlimit="10" points="476.241,344.673 476.503,345 
				476.241,345 382.72,345 429.611,284.014 476.241,223.323 476.503,222.996 476.241,222.996 382.72,222.996 429.611,284.014 			"/>
		</g>
	</g>
	<g>
		<g>
			<g id="XMLID_19_">
				<g>
					<path fill="#26A9E0" d="M267.899,307.442c-3.858-4.229-10.53-14.577-18.051-25.932c0,0,171.185,172.088,167.457,175.863
						c-3.989,3.969-174.945-168.574-174.945-168.574C253.609,296.607,263.877,303.57,267.899,307.442z"/>
					<path fill="#00ADEE" d="M249.849,281.51c7.521,11.355,14.192,21.703,18.051,25.932c-4.022-3.872-14.29-10.835-25.539-18.644
						c-12.36-8.623-25.866-18.286-33.583-25.997l0.033-0.033c0.85,0.651,1.667,1.301,2.485,1.887
						c25.277,18.774,33.06,8.948,15.009-14.967c-0.621-0.813-1.275-1.659-1.962-2.538
						C232.027,255.025,241.445,268.854,249.849,281.51z"/>
					<path fill="#5FB0E2" d="M226.305,249.689c18.051,23.915,10.268,33.741-15.009,14.967l4.971-9.403l9.679-5.303L226.305,249.689z
						"/>
					<path fill="#A6A8AB" d="M226.305,249.689l-0.359,0.261l-9.679,5.303c-1.341-1.725-2.976-6.995-5.134-12.396
						c1.243-2.05,3.074-2.505,5.265-1.725c0.033,0,0.033,0.033,0.033,0.033c2.256,0.813,4.97,2.961,7.913,5.987
						C225.03,248.03,225.684,248.876,226.305,249.689z"/>
					<path fill="#A6A8AB" d="M216.266,255.253l-4.971,9.403c-0.817-0.586-1.635-1.236-2.485-1.887l-0.033,0.033
						c-2.878-2.896-4.905-5.499-5.821-7.679c-0.883-2.115-0.654-3.839,1.014-5.043l0.131-0.13
						C209.366,252.194,214.565,253.919,216.266,255.253z"/>
					<path fill="#26A9E0" d="M216.397,241.132c-2.191-0.781-4.022-0.325-5.265,1.725c-1.962-4.913-4.349-9.924-7.357-12.396h-0.033
						c-2.55-2.083-5.559-2.278-9.123,1.008c-7.914-22.548-12.917-12.526-12.917-12.526c-1.799-5.011-5.69-14.219-9.483-23.004
						c-0.033-0.032,0-0.032,0-0.032C173.494,194.767,183.435,188.78,216.397,241.132z"/>
					<path fill="#00ADEE" d="M211.132,242.856c2.158,5.401,3.793,10.672,5.134,12.396c-1.701-1.334-6.9-3.059-12.165-5.303
						l6.933-6.963C211.067,242.954,211.099,242.889,211.132,242.856z"/>
					<path fill="#262261" d="M211.132,242.856c-0.033,0.033-0.065,0.098-0.098,0.13l-8.698-1.725c1.929-1.952,1.929-5.076,0-6.996
						c-1.93-1.952-5.036-1.952-6.965,0c-0.49,0.488-0.817,1.009-1.079,1.627l-0.164-0.065l0.85-2.473l8.764-2.896h0.033
						C206.783,232.933,209.17,237.943,211.132,242.856z"/>
					<path fill="#00ADEE" d="M211.034,242.987l-6.933,6.963c-0.033-0.033-0.098-0.033-0.164-0.065l-1.602-8.622L211.034,242.987z"/>
					<path fill="#26A9E0" d="M191.97,242.238c2.354,3.091,7.194,5.596,11.968,7.646l0.033,0.195
						c-1.667,1.204-1.896,2.928-1.014,5.043c-53.562-34.099-45.453-43.567-44.603-44.348c8.6,3.742,17.429,7.483,22.301,9.208
						c0,0-9.941,5.011,12.426,12.982C189.812,236.544,189.975,239.635,191.97,242.238z"/>
					<path fill="#262261" d="M202.336,241.262l1.602,8.622c-4.774-2.05-9.614-4.555-11.968-7.646l2.158-6.41l0.164,0.065
						c-0.719,1.79-0.36,3.904,1.079,5.369C197.3,243.182,200.406,243.182,202.336,241.262z"/>
					<path fill="#262261" d="M203.742,230.46l-8.764,2.896l0.131-0.423c-0.163-0.488-0.327-0.976-0.49-1.464
						C198.183,228.182,201.191,228.377,203.742,230.46z"/>
					<path fill="#FFFFFF" d="M202.336,234.267c1.929,1.92,1.929,5.043,0,6.996c-1.93,1.919-5.036,1.919-6.965,0
						c-1.439-1.464-1.798-3.579-1.079-5.369c0.262-0.618,0.589-1.139,1.079-1.627C197.3,232.314,200.406,232.314,202.336,234.267z"
						/>
					<path fill="#FFFFFF" d="M180.656,219.983l1.046-1.041c0,0,5.003-10.021,12.917,12.526c0.164,0.488,0.327,0.977,0.49,1.464
						l-0.131,0.423l-0.392,0.13c-0.523-0.163-1.014-0.358-1.504-0.521C170.715,224.994,180.656,219.983,180.656,219.983z"/>
					<path fill="#262261" d="M194.978,233.355l-0.85,2.473l-2.158,6.41c-1.995-2.603-2.158-5.694,1.112-9.273
						c0.491,0.163,0.981,0.358,1.504,0.521L194.978,233.355z"/>
					<path fill="#0075B8" d="M158.354,210.775c-10.399-4.49-20.405-8.948-22.433-9.891c8.175,2.798,18.476,4.62,31.425,4.588
						c-2.093,2.147-2.093,5.629,0,7.744c2.125,2.147,5.592,2.147,7.717,0c2.125-2.115,2.125-5.597,0-7.744
						c-2.125-2.115-5.592-2.115-7.717,0c0-12.885-1.864-23.167-4.774-31.333c0.49,1.074,5.003,11.095,9.646,21.768
						c0,0-0.033,0,0,0.032c3.793,8.785,7.684,17.993,9.483,23.004l-1.046,1.041C175.783,218.258,166.955,214.517,158.354,210.775z"
						/>
					<path fill="#FFFFFF" d="M175.064,205.472c2.125,2.147,2.125,5.629,0,7.744c-2.125,2.147-5.592,2.147-7.717,0
						c-2.093-2.115-2.093-5.597,0-7.744C169.472,203.356,172.938,203.356,175.064,205.472z"/>
					<path fill="#26A9E0" d="M167.347,205.472c-12.949,0.032-23.25-1.79-31.425-4.588c-0.261-0.098-0.392-0.163-0.392-0.163
						c-25.474-8.98-30.411-27.819-30.967-30.357c3.008,2.44,6.965,4.62,12.099,6.41l0.033-0.033
						c0.131,0.163,0.262,0.293,0.393,0.423c1.602,1.627,3.499,2.831,5.526,3.579l16.317,11.16h14.322V177.49l-11.347-16.139h-0.033
						c-0.719-2.017-1.896-3.937-3.532-5.563c-1.962-5.694-4.415-9.989-7.128-13.145l0.065-0.033c0,0,21.451,3.807,31.261,31.431
						c0,0,0,0.033,0.033,0.098C165.483,182.305,167.347,192.587,167.347,205.472z"/>
					<polygon fill="#00A9C6" points="153.253,177.49 153.253,191.903 138.931,191.903 138.931,177.522 					"/>
					<path fill="#FFFFFF" d="M141.906,161.351l11.347,16.139l-14.322,0.032l-0.36-0.325c4.186-4.262,5.297-10.477,3.303-15.846
						H141.906z"/>
					<path fill="#1B75BB" d="M141.874,161.351c1.995,5.369,0.883,11.583-3.303,15.846c-0.033,0.033-0.065,0.065-0.098,0.098
						c-4.284,4.295-10.497,5.434-15.859,3.449c-2.027-0.748-3.924-1.952-5.526-3.579c-0.131-0.13-0.262-0.26-0.393-0.423
						c-2.943-3.156-4.284-7.223-4.087-11.225c0.164-3.579,1.635-7.125,4.349-9.859c2.877-2.896,6.638-4.36,10.431-4.393
						c3.957-0.032,7.914,1.497,10.955,4.523C139.977,157.415,141.154,159.334,141.874,161.351z M136.805,168.77l-2.387-9.013
						l-8.993-2.44l-6.573,6.637l2.387,9.013l8.993,2.44L136.805,168.77z"/>
					<path fill="#FFFFFF" d="M138.931,177.522v14.381l-16.317-11.16c5.363,1.985,11.576,0.846,15.859-3.449
						c0.033-0.033,0.065-0.065,0.098-0.098L138.931,177.522z"/>
					<path fill="#FFFFFF" d="M134.418,159.757l2.387,9.013l-6.573,6.638l-8.993-2.44l-2.387-9.013l6.573-6.637L134.418,159.757z
						 M132.292,167.566l-1.21-4.458l-4.447-1.204l-3.237,3.254l1.177,4.458l4.447,1.204L132.292,167.566z"/>
					<polygon fill="#0059A9" points="131.083,163.108 132.292,167.566 129.022,170.819 124.575,169.616 123.398,165.158 
						126.635,161.904 					"/>
					<path fill="#00BDF0" d="M131.213,142.643c2.714,3.156,5.167,7.451,7.128,13.145c-3.041-3.026-6.998-4.555-10.955-4.523v-0.097
						c0,0-22.922-12.853-27.991-13.471c-0.033-0.065-0.033-0.13-0.033-0.195C101.881,136.265,119.147,128.586,131.213,142.643z"/>
					<path fill="#FFFFFF" d="M127.387,151.167v0.097c-3.793,0.033-7.554,1.497-10.431,4.393c-2.714,2.733-4.186,6.28-4.349,9.859
						c0,0-12.589-22.711-13.211-27.819C104.465,138.315,127.387,151.167,127.387,151.167z"/>
					<path fill="#00BDF0" d="M104.563,170.364c-15.042-12.071-6.704-30.064-5.396-32.7c0.065,0,0.13,0,0.229,0.032
						c0.622,5.108,13.211,27.819,13.211,27.819c-0.196,4.002,1.145,8.069,4.087,11.225l-0.033,0.033
						C111.528,174.984,107.571,172.804,104.563,170.364z"/>
				</g>
				<g>
					<path fill="none" stroke="#231F20" stroke-width="2.4525" stroke-miterlimit="10" d="M138.342,155.788
						c1.635,1.627,2.812,3.546,3.532,5.563c1.995,5.369,0.883,11.583-3.303,15.846c-0.033,0.033-0.065,0.065-0.098,0.098
						c-4.284,4.295-10.497,5.434-15.859,3.449c-2.027-0.748-3.924-1.952-5.526-3.579c-0.131-0.13-0.262-0.26-0.393-0.423
						c-2.943-3.156-4.284-7.223-4.087-11.225c0.164-3.579,1.635-7.125,4.349-9.859c2.877-2.896,6.638-4.36,10.431-4.393
						C131.344,151.232,135.301,152.762,138.342,155.788z"/>
					<path fill="none" stroke="#231F20" stroke-width="2.4525" stroke-miterlimit="10" d="M135.922,200.884
						c8.175,2.798,18.476,4.62,31.425,4.588"/>
					<path fill="none" stroke="#231F20" stroke-width="2.4525" stroke-miterlimit="10" d="M104.498,170.071
						c0,0,0.033,0.098,0.065,0.293c0.556,2.538,5.493,21.376,30.967,30.357"/>
					<path fill="none" stroke="#231F20" stroke-width="2.4525" stroke-miterlimit="10" d="M162.573,174.138
						c2.91,8.167,4.774,18.449,4.774,31.333"/>
					<path fill="none" stroke="#231F20" stroke-width="2.4525" stroke-miterlimit="10" d="M131.279,142.61
						c0,0,21.451,3.807,31.261,31.431"/>
					<polygon fill="none" stroke="#231F20" stroke-width="2.4525" stroke-miterlimit="10" points="130.232,175.407 121.24,172.967 
						118.853,163.954 125.425,157.317 134.418,159.757 136.805,168.77 					"/>
					<polygon fill="none" stroke="#231F20" stroke-width="2.4525" stroke-miterlimit="10" points="129.022,170.819 124.575,169.616 
						123.398,165.158 126.635,161.904 131.083,163.108 132.292,167.566 					"/>
					<path fill="none" stroke="#231F20" stroke-width="2.4525" stroke-miterlimit="10" d="M193.082,232.965
						c-3.27,3.579-3.106,6.67-1.112,9.273c2.354,3.091,7.194,5.596,11.968,7.646c0.065,0.033,0.131,0.033,0.164,0.065
						c5.265,2.245,10.464,3.969,12.165,5.303"/>
					<path fill="none" stroke="#231F20" stroke-width="2.4525" stroke-miterlimit="10" d="M203.774,230.46
						c3.008,2.473,5.396,7.483,7.357,12.396c2.158,5.401,3.793,10.672,5.134,12.396"/>
					<path fill="none" stroke="#231F20" stroke-width="2.4525" stroke-miterlimit="10" d="M194.619,231.468
						c3.564-3.286,6.573-3.091,9.123-1.008"/>
					<path fill="none" stroke="#231F20" stroke-width="2.4525" stroke-miterlimit="10" d="M180.656,219.983
						c0,0-9.941,5.011,12.426,12.982c0.491,0.163,0.981,0.358,1.504,0.521"/>
					<path fill="none" stroke="#231F20" stroke-width="2.4525" stroke-miterlimit="10" d="M135.53,200.721
						c0,0,0.131,0.065,0.392,0.163c2.027,0.943,12.034,5.401,22.433,9.891c8.6,3.742,17.429,7.483,22.301,9.208"/>
					<path fill="none" stroke="#231F20" stroke-width="2.4525" stroke-miterlimit="10" d="M267.899,307.442
						c-4.022-3.872-14.29-10.835-25.539-18.644c-12.36-8.623-25.866-18.286-33.583-25.997c-2.878-2.896-4.905-5.499-5.821-7.679
						c-0.883-2.115-0.654-3.839,1.014-5.043"/>
					<path fill="none" stroke="#231F20" stroke-width="2.4525" stroke-miterlimit="10" d="M216.43,241.165
						c2.256,0.813,4.97,2.961,7.913,5.987c7.685,7.874,17.102,21.702,25.506,34.359c7.521,11.355,14.192,21.703,18.051,25.932
						c0.163,0.195,0.327,0.357,0.49,0.488c0.065,0.098,0.164,0.195,0.229,0.26"/>
					<path fill="none" stroke="#231F20" stroke-width="2.4525" stroke-miterlimit="10" d="M211.034,242.987
						c0.033-0.033,0.065-0.098,0.098-0.13c1.243-2.05,3.074-2.505,5.265-1.725"/>
					<path fill="none" stroke="#231F20" stroke-width="2.4525" stroke-miterlimit="10" d="M242.36,288.799
						c0,0,170.956,172.543,174.945,168.574"/>
					<path fill="none" stroke="#231F20" stroke-width="2.4525" stroke-miterlimit="10" d="M249.849,281.51
						c0,0,171.185,172.088,167.457,175.863"/>
					<path fill="none" stroke="#231F20" stroke-width="2.4525" stroke-miterlimit="10" d="M158.419,210.71
						c0,0-0.033,0.033-0.065,0.065c-0.851,0.781-8.96,10.249,44.603,44.348"/>
					<path fill="none" stroke="#231F20" stroke-width="2.4525" stroke-miterlimit="10" d="M172.219,195.906
						c1.275-1.139,11.216-7.126,44.178,45.226c0.033,0,0.033,0.033,0.033,0.033"/>
					<path fill="none" stroke="#231F20" stroke-width="2.4525" stroke-miterlimit="10" d="M172.088,196.036
						c0,0,0.033-0.065,0.131-0.098"/>
					<polygon fill="none" stroke="#231F20" stroke-width="2.4525" stroke-miterlimit="10" points="138.931,191.903 153.253,191.903 
						153.253,177.49 138.931,177.522 					"/>
					
						<line fill="none" stroke="#231F20" stroke-width="2.4525" stroke-miterlimit="10" x1="138.931" y1="191.903" x2="122.613" y2="180.743"/>
					
						<line fill="none" stroke="#231F20" stroke-width="2.4525" stroke-miterlimit="10" x1="153.253" y1="177.49" x2="141.906" y2="161.351"/>
					<path fill="none" stroke="#231F20" stroke-width="2.4525" stroke-miterlimit="10" d="M127.387,151.167
						c0,0-22.922-12.853-27.991-13.471c-0.098-0.032-0.164-0.032-0.229-0.032c-0.065,0-0.098,0-0.131,0c0,0,0.065-0.033,0.196-0.098
						c0.033-0.033,0.065-0.033,0.131-0.065c2.518-1.237,19.784-8.916,31.85,5.141c2.714,3.156,5.167,7.451,7.128,13.145"/>
					<path fill="none" stroke="#231F20" stroke-width="2.4525" stroke-miterlimit="10" d="M112.607,165.516
						c0,0-12.589-22.711-13.211-27.819c-0.033-0.065-0.033-0.13-0.033-0.195c0-0.065,0-0.13,0-0.163c0,0-0.033,0.065-0.131,0.228
						c0,0.032-0.032,0.065-0.065,0.098c-1.308,2.635-9.646,20.628,5.396,32.7c3.008,2.44,6.965,4.62,12.099,6.41"/>
					<path fill="none" stroke="#231F20" stroke-width="2.4525" stroke-miterlimit="10" d="M208.811,262.769
						c0.85,0.651,1.667,1.301,2.485,1.887c25.277,18.774,33.06,8.948,15.009-14.967c-0.621-0.813-1.275-1.659-1.962-2.538"/>
					
						<line fill="none" stroke="#231F20" stroke-width="2.4525" stroke-miterlimit="10" x1="216.266" y1="255.253" x2="211.295" y2="264.656"/>
					
						<line fill="none" stroke="#231F20" stroke-width="2.4525" stroke-miterlimit="10" x1="216.266" y1="255.253" x2="225.945" y2="249.95"/>
					<polyline fill="none" stroke="#231F20" stroke-width="2.4525" stroke-miterlimit="10" points="195.109,232.933 
						194.978,233.355 194.128,235.829 191.97,242.238 191.937,242.336 					"/>
					<polyline fill="none" stroke="#231F20" stroke-width="2.4525" stroke-miterlimit="10" points="194.586,233.486 
						194.978,233.355 203.742,230.46 203.774,230.46 					"/>
					<path fill="none" stroke="#231F20" stroke-width="2.4525" stroke-miterlimit="10" d="M194.292,235.894
						c0.262-0.618,0.589-1.139,1.079-1.627c1.929-1.952,5.036-1.952,6.965,0c1.929,1.92,1.929,5.043,0,6.996
						c-1.93,1.919-5.036,1.919-6.965,0C193.932,239.798,193.572,237.683,194.292,235.894z"/>
					<polyline fill="none" stroke="#231F20" stroke-width="2.4525" stroke-miterlimit="10" points="202.336,241.262 
						203.938,249.884 203.971,250.08 					"/>
					<polyline fill="none" stroke="#231F20" stroke-width="2.4525" stroke-miterlimit="10" points="203.971,250.08 204.102,249.95 
						211.034,242.987 					"/>
					
						<line fill="none" stroke="#231F20" stroke-width="2.4525" stroke-miterlimit="10" x1="211.034" y1="242.987" x2="202.336" y2="241.262"/>
					<path fill="none" stroke="#231F20" stroke-width="2.4525" stroke-miterlimit="10" d="M181.702,218.942
						c0,0,5.003-10.021,12.917,12.526c0.164,0.488,0.327,0.977,0.49,1.464"/>
					<path fill="none" stroke="#231F20" stroke-width="2.4525" stroke-miterlimit="10" d="M162.54,174.041c0,0,0,0.033,0.033,0.098
						c0.49,1.074,5.003,11.095,9.646,21.768c0,0-0.033,0,0,0.032c3.793,8.785,7.684,17.993,9.483,23.004"/>
					<polyline fill="none" stroke="#231F20" stroke-width="2.4525" stroke-miterlimit="10" points="180.329,220.308 
						180.656,219.983 181.702,218.942 181.898,218.747 					"/>
					<path fill="none" stroke="#231F20" stroke-width="2.4525" stroke-miterlimit="10" d="M175.064,205.472
						c2.125,2.147,2.125,5.629,0,7.744c-2.125,2.147-5.592,2.147-7.717,0c-2.093-2.115-2.093-5.597,0-7.744
						C169.472,203.356,172.938,203.356,175.064,205.472z"/>
				</g>
			</g>
		</g>
		<g>
			<g id="XMLID_18_">
				<g>
					<path fill="#FFC440" d="M419.441,151.775c-2.354-2.354-9.777,2.027-19.097,9.483l-0.131-0.164c0,0,0.098-12.295,7.782-20.405
						C418.035,132.646,419.441,151.775,419.441,151.775z"/>
					<path fill="#FFC440" d="M396.846,129.54c0,0,19.194,1.112,11.15,11.15c-7.324,6.9-17.952,7.652-20.045,7.75
						C395.112,139.251,399.232,131.894,396.846,129.54z"/>
					<path fill="#5A4A42" d="M407.996,140.69l-63.798,63.732c-2.779-2.779-7.357-3.041-11.706-1.112
						c2.616-1.569,6.965-5.036,12.229-9.712c13.146-11.674,31.948-30.705,43.229-45.159
						C390.044,148.342,400.672,147.59,407.996,140.69z"/>
					<path fill="#5A4A42" d="M344.198,204.422l63.798-63.732c-7.685,8.11-7.782,20.405-7.782,20.405l0.131,0.164
						c-14.355,11.576-33.19,30.444-44.864,43.164c-5.2,5.657-8.993,10.104-10.399,12.165
						C347.239,212.107,347.076,207.3,344.198,204.422z"/>
					<path fill="#A6A8AB" d="M376.506,231.4l-13.995,14.323c-5.068-10.987-12.852-20.339-12.852-20.339h-0.032
						c1.341-2.649,2.616-6.05,3.728-10.399C353.354,214.984,364.767,225.645,376.506,231.4z"/>
					<path fill="#FAAF40" d="M355.48,204.422c-0.622,4.022-1.341,7.521-2.126,10.562c-1.111,4.349-2.387,7.75-3.728,10.399
						c-7.521,14.977-17.43,6.344-17.43,6.344l-0.359-0.36c5.298-5.396,8.601-8.764,9.353-9.516c0.098-0.098,0.163-0.164,0.163-0.164
						c0.065-0.065,0.164-0.164,0.229-0.229c1.374-1.374,2.453-2.877,3.271-4.447c0.065-0.131,0.131-0.261,0.229-0.425
						C346.487,214.527,350.28,210.08,355.48,204.422z"/>
					<path fill="#FFC440" d="M344.853,217.012c-0.817,1.57-1.896,3.074-3.271,4.447c-0.064,0.065-0.163,0.164-0.229,0.229
						c0,0-0.065,0.065-0.163,0.164c-5.396,5.068-12.753,6.082-16.645,2.191c-3.793-3.793-2.91-10.824,1.799-16.154
						c0.261-0.294,0.522-0.589,0.817-0.883c1.275-1.275,2.648-2.289,4.087-3.074c0.426-0.229,0.851-0.425,1.243-0.621
						c4.349-1.929,8.927-1.667,11.706,1.112c2.878,2.877,3.041,7.685,0.883,12.165C344.983,216.75,344.918,216.881,344.853,217.012z
						 M338.019,217.764c2.583-2.583,3.172-6.246,1.242-8.175c-1.896-1.896-5.559-1.341-8.175,1.243
						c-2.616,2.616-3.172,6.278-1.275,8.208C331.74,220.936,335.402,220.38,338.019,217.764z"/>
					<path fill="#FAAF40" d="M326.312,207.856c-1.046,1.014-4.186,4.087-9.025,8.862c-0.817-0.981-7.554-10.006,5.887-17.07
						c2.714-1.438,6.278-2.779,10.921-3.989c3.042-0.752,6.573-1.471,10.596-2.093l0.032,0.033
						c-5.265,4.676-9.613,8.143-12.229,9.712c-0.393,0.196-0.817,0.393-1.243,0.621c-1.438,0.785-2.812,1.799-4.087,3.074
						c-0.295,0.294-0.557,0.588-0.817,0.883L326.312,207.856z"/>
					<path fill="#EC1C24" d="M339.261,209.589c1.93,1.929,1.341,5.592-1.242,8.175c-2.616,2.616-6.278,3.172-8.208,1.275
						c-1.896-1.929-1.341-5.591,1.275-8.208C333.702,208.248,337.364,207.692,339.261,209.589z"/>
					<path fill="#FFFFFF" d="M94.109,454.25l-0.262,0.262c0.033-0.229,0.098-0.458,0.164-0.687l229.914-229.685l0.621-0.098
						c3.892,3.891,11.249,2.877,16.645-2.191c-0.752,0.752-4.055,4.12-9.353,9.516C288.838,274.989,114.088,451.209,94.109,454.25z"
						/>
					<path fill="#A6A8AB" d="M318.268,173.096c5.755,11.739,15.826,22.563,15.826,22.563c-4.643,1.21-8.207,2.551-10.921,3.989
						c0,0-8.241-7.488-19.261-12.557L318.268,173.096z"/>
					<path fill="#FFFFFF" d="M317.286,216.718c4.84-4.774,7.979-7.848,9.025-8.862l0.033,0.033
						c-4.709,5.33-5.592,12.36-1.799,16.154l-0.621,0.098L94.011,453.825C100.682,430.739,274.646,258.639,317.286,216.718z"/>
				</g>
				<g>
					<path fill="none" stroke="#231F20" stroke-width="2.4525" stroke-miterlimit="10" d="M332.492,203.311
						c2.616-1.569,6.965-5.036,12.229-9.712c13.146-11.674,31.948-30.705,43.229-45.159c7.161-9.188,11.281-16.546,8.895-18.9
						c0,0,19.194,1.112,11.15,11.15"/>
					<path fill="none" stroke="#231F20" stroke-width="2.4525" stroke-miterlimit="10" d="M387.592,148.44c0,0,0.131,0,0.359,0
						c2.093-0.098,12.721-0.85,20.045-7.75"/>
					<path fill="none" stroke="#231F20" stroke-width="2.4525" stroke-miterlimit="10" d="M400.214,161.095
						c0,0,0.098-12.295,7.782-20.405l-63.798,63.732"/>
					<path fill="none" stroke="#231F20" stroke-width="2.4525" stroke-miterlimit="10" d="M326.671,207.496
						c0,0-0.131,0.131-0.359,0.36c-1.046,1.014-4.186,4.087-9.025,8.862c-42.641,41.921-216.604,214.021-223.275,237.107
						c-0.065,0.229-0.131,0.458-0.164,0.687l0.262-0.262"/>
					<polyline fill="none" stroke="#231F20" stroke-width="2.4525" stroke-miterlimit="10" points="93.586,454.25 94.011,453.825 
						323.925,224.141 					"/>
					<path fill="none" stroke="#231F20" stroke-width="2.4525" stroke-miterlimit="10" d="M317.352,216.815
						c0,0-0.032-0.032-0.065-0.098c-0.817-0.981-7.554-10.006,5.887-17.07c2.714-1.438,6.278-2.779,10.921-3.989
						c3.042-0.752,6.573-1.471,10.596-2.093"/>
					<path fill="none" stroke="#231F20" stroke-width="2.4525" stroke-miterlimit="10" d="M332.197,231.727
						c0,0,9.908,8.633,17.43-6.344c1.341-2.649,2.616-6.05,3.728-10.399c0.785-3.041,1.504-6.54,2.126-10.562"/>
					<path fill="none" stroke="#231F20" stroke-width="2.4525" stroke-miterlimit="10" d="M334.094,195.659
						c0,0-10.071-10.824-15.826-22.563l-14.355,13.996c11.02,5.068,19.261,12.557,19.261,12.557"/>
					<path fill="none" stroke="#231F20" stroke-width="2.4525" stroke-miterlimit="10" d="M341.19,221.852
						c-5.396,5.068-12.753,6.082-16.645,2.191c-3.793-3.793-2.91-10.824,1.799-16.154c0.261-0.294,0.522-0.589,0.817-0.883
						c1.275-1.275,2.648-2.289,4.087-3.074c0.426-0.229,0.851-0.425,1.243-0.621c4.349-1.929,8.927-1.667,11.706,1.112
						c2.878,2.877,3.041,7.685,0.883,12.165"/>
					<path fill="none" stroke="#231F20" stroke-width="2.4525" stroke-miterlimit="10" d="M344.853,217.012
						c-0.817,1.57-1.896,3.074-3.271,4.447c-0.064,0.065-0.163,0.164-0.229,0.229"/>
					<path fill="none" stroke="#231F20" stroke-width="2.4525" stroke-miterlimit="10" d="M341.354,221.688
						c0,0-0.065,0.065-0.163,0.164c-0.752,0.752-4.055,4.12-9.353,9.516c-43,43.622-217.75,219.842-237.729,222.883l230.078-229.848
						l0.229-0.229"/>
					<path fill="none" stroke="#231F20" stroke-width="2.4525" stroke-miterlimit="10" d="M338.019,217.764
						c-2.616,2.616-6.278,3.172-8.208,1.275c-1.896-1.929-1.341-5.591,1.275-8.208c2.616-2.583,6.278-3.139,8.175-1.243
						C341.19,211.518,340.602,215.181,338.019,217.764z"/>
					<path fill="none" stroke="#231F20" stroke-width="2.4525" stroke-miterlimit="10" d="M344.656,217.339
						c0.033-0.098,0.099-0.196,0.196-0.327c0.065-0.131,0.131-0.261,0.229-0.425c1.406-2.06,5.199-6.507,10.399-12.165
						c11.674-12.72,30.509-31.588,44.864-43.164c9.319-7.456,16.742-11.837,19.097-9.483c0,0-1.406-19.129-11.445-11.085"/>
					<path fill="none" stroke="#231F20" stroke-width="2.4525" stroke-miterlimit="10" d="M353.354,214.984
						c0,0,11.412,10.66,23.151,16.416l-13.995,14.323c-5.068-10.987-12.852-20.339-12.852-20.339"/>
				</g>
			</g>
		</g>
	</g>
</g>
</svg>
